<svg width="40" height="40"  xmlns="http://www.w3.org/2000/svg" fill="currentColor" viewBox="0 0 383.3 383.01"><path d="M-282.64,204c2.69.83,5.42,1.57,8.07,2.52a44,44,0,0,1,29.21,41.25c.13,28.56.06,57.12,0,85.69,0,7.66-5.36,13.37-12.24,13.26s-11.86-5.51-11.88-13.17q-.09-41.73,0-83.44c0-5.66-1.07-10.88-5-15.25-4.56-5.12-10.36-7-17.05-6.94q-80.26.06-160.52,0c-6.74,0-13.47-.06-20.21,0-12.11.13-20.76,8.69-20.77,20.79q-.06,122.91,0,245.83c0,12.39,8.78,20.82,21.49,20.83q61.55,0,123.1,0c9,0,14.94,8.27,11.76,16.32a11.79,11.79,0,0,1-11,7.57c-42.66,0-85.31.15-128-.07-19-.1-36.19-15.31-40.52-34.93a22.39,22.39,0,0,0-.81-2.39V241.43a14.31,14.31,0,0,0,.77-2c2.45-11.63,8.32-21.24,18.35-27.53,5.56-3.49,12.17-5.3,18.31-7.87Z" transform="translate(516.93 -204)"/><path d="M-133.69,439.59c0,8.61-.17,17.22,0,25.81.68,29.18-10.12,53.94-29,75.56-16.47,18.87-36.6,32.88-58.9,44-5.33,2.66-10.21,2.77-15.62.06-27.75-13.85-52.09-31.8-69.69-57.8-12.25-18.09-18.67-38-18.47-60.06.19-20.58,0-41.15,0-61.73,0-7.09,2.59-10.72,9.4-13q40.61-13.86,81.2-27.69a15,15,0,0,1,10.18-.08c27.16,9.29,54.36,18.48,81.52,27.77,6.78,2.32,9.29,6,9.29,13.15Q-133.67,422.57-133.69,439.59Zm-24.68-26.86a4.64,4.64,0,0,0-1.09-.55q-33.9-11.56-67.83-23a7.93,7.93,0,0,0-4.67.16c-22.15,7.46-44.25,15.08-66.42,22.48-2.61.87-3,2.14-3,4.54q.14,25.08,0,50.14a80.72,80.72,0,0,0,12.3,43.62c14.19,22.83,34.76,38.45,58,50.92a4.6,4.6,0,0,0,3.69-.24c18.05-9.69,34.43-21.56,47.76-37.28,11.09-13.09,19.93-27.76,20.91-45C-157.43,456.74-158.37,434.88-158.37,412.73Z" transform="translate(516.93 -204)"/><path d="M-381.06,355.85q-37.43,0-74.83,0c-9.43,0-15.54-8.07-12.4-16.26a11.3,11.3,0,0,1,9.71-7.68,37.4,37.4,0,0,1,4.1-.2h146.67c7.55,0,12.06,2.74,13.89,8.35,2.64,8-3.27,15.75-12.31,15.78-20.08.08-40.16,0-60.24,0Z" transform="translate(516.93 -204)"/><path d="M-413.29,395.64h43c7.67,0,13,4.83,13.05,11.82s-5.28,12.1-13.14,12.1H-456c-7.65,0-13-4.86-13-11.82-.05-7.22,5.21-12.09,13.1-12.1Z" transform="translate(516.93 -204)"/><path d="M-421.12,267.74c11.85,0,23.7-.07,35.55,0a12.26,12.26,0,0,1,12.12,9.29,11.67,11.67,0,0,1-5.74,13.07,16.12,16.12,0,0,1-7.13,1.69q-34.81.19-69.61.05c-8,0-13.16-5-13.08-12.23s5.45-11.87,13.46-11.89C-444.07,267.71-432.6,267.73-421.12,267.74Z" transform="translate(516.93 -204)"/><path d="M-234.85,485.17c9.48-12.63,18.6-24.77,27.71-36.92,3.82-5.08,7.59-10.19,11.43-15.26,4.37-5.78,11.71-7.14,17.12-3.22,5.64,4.09,6.71,11.48,2.23,17.5q-23.56,31.64-47.33,63.12c-4.74,6.28-12.7,7-18.3,1.47q-16-15.69-31.75-31.73c-5-5-4.92-12.37-.23-17.11,4.85-4.91,12.16-4.88,17.38.27C-249.41,470.39-242.35,477.61-234.85,485.17Z" transform="translate(516.93 -204)"/></svg>