<svg width="40" height="40" fill="currentColor" xmlns="http://www.w3.org/2000/svg" viewBox="0 0 383.32 383.34"><path d="M-336.76,460.72V241.39c2.78-6.19,7.52-8.32,14.31-8.31q178.15.19,356.32.1c8.33,0,12.68,4.33,12.68,12.63q0,30.68,0,61.37V456.49c0,8.31-4.3,12.64-12.63,12.77-1.12,0-2.25,0-3.37,0-28.7,0-57.39,0-86.09.09a6.51,6.51,0,0,0-4.25,1.87c-3.22,3.43-6,7.3-9.22,10.69-2.31,2.41-3.21,4.37-1.67,7.81q18.14,40.75,35.83,81.72a16.13,16.13,0,0,1,1.52,8.21c-1,7.09-7.3,10.6-15,8.84-9.57-2.21-19.16-4.39-28.67-6.86-2.61-.67-3.74,0-5,2.21-4.33,8-9,15.82-13.27,23.83-2.08,3.86-4.64,7-8.75,8.74h-6c-4.5-2-6.91-5.63-8.8-10-8-18.5-16.09-36.93-24.18-55.37-.61-1.4-1.35-2.75-2.27-4.6-.91,1.93-1.57,3.24-2.15,4.59-8.09,18.45-16.23,36.87-24.18,55.38-1.89,4.4-4.32,8-8.8,10h-6c-4.12-1.71-6.66-4.89-8.74-8.74-4.38-8.11-9.07-16-13.48-24.14-1.08-2-2.07-2.53-4.37-1.95-9.41,2.38-18.9,4.41-28.32,6.72-5.08,1.25-9.73,1-13.31-3.28s-3.13-8.75-1-13.62c12-27.2,23.84-54.5,35.94-81.67,1.53-3.44.7-5.44-1.67-7.81a58.38,58.38,0,0,1-8.26-9.54c-1.6-2.5-3.2-3.18-6-3.17-29.07.09-58.14,0-87.21.13C-329.38,469.38-334.21,467.14-336.76,460.72ZM-234,446.44c3.36-4.92,5.72-10.17,9.64-13.67,5.29-4.72,7-9.71,6.84-16.67-.47-19.41,16.63-34.65,36-32.68a11.75,11.75,0,0,0,10.66-4.13,43.44,43.44,0,0,1,6.17-6A32.53,32.53,0,0,1-120.51,378c3.72,4.21,7.73,6.18,13.43,5.38a25.22,25.22,0,0,1,9.24.8c16,3.9,26,17.44,25.2,34.26-.25,5.34,1.41,9.07,5.25,12.82,3.65,3.55,6.4,8.17,8.94,12.66,1.17,2.06,2.11,2.79,4.4,2.78,24.83-.08,49.66,0,74.49,0h3.38V255.81H-314.09V446.44Zm124.63,59.26h3.74a10.36,10.36,0,0,0,10.51-11.77c-1.22-11.65,2.72-21.26,11.38-29,6.85-6.15,6.83-12.15,0-18.21-8.67-7.74-12.61-17.38-11.41-29,.69-6.77-4-12.2-10.83-11.7-12.76.93-23.15-3.14-31.41-13a9.86,9.86,0,0,0-15.43,0c-8.26,9.91-18.64,14-31.4,13.06-6.81-.49-11.57,4.89-10.88,11.65,1.19,11.64-2.7,21.3-11.37,29.05-6.82,6.09-6.9,12.11,0,18.19,6.52,5.77,10.51,12.88,11.38,21.6a34,34,0,0,1,.08,6.69c-.78,7.7,3.75,13,11.52,12.48,11.55-.71,21.34,2.62,29.14,11.36,6.39,7.16,12.08,7.14,18.47,0C-128.8,509.09-120,505.2-109.37,505.7Zm-75.25,74.19c6.43-14.69,12.53-28.6,18.62-42.51a20.2,20.2,0,0,1-2.63-2.55c-3.89-5.6-9.06-7.38-15.84-6.65-6.45.69-12.53-1.51-18-5-1.81-1.16-3.49-2.52-5.4-3.92l-18.53,42.3c6.08-1.42,11.36-2.62,16.62-3.89,8.58-2.06,12.32-.48,16.62,7.12C-190.44,569.58-187.72,574.41-184.62,579.89Zm79.06,0c2.44-4.33,4.52-7.83,6.44-11.42,5.6-10.49,8.06-14.23,22.56-9.9,3.93,1.17,8,1.82,12.75,2.86-6.4-14.6-12.42-28.34-18.6-42.42-8,7.58-17.43,9.89-28,9.25-2.68-.16-5.74,1.85-8.2,3.5-2.1,1.41-3.59,3.73-5.49,5.8Z" transform="translate(336.76 -233.08)"/><path d="M-145.48,300.52q-67.15,0-134.32,0c-8.93,0-14.6-8.05-11.09-15.74a10.78,10.78,0,0,1,10-6.68c.49,0,1,0,1.49,0H-10.77c6.77,0,11.54,3.71,12.35,9.53A11.17,11.17,0,0,1-9.66,300.49c-8.48.09-17,0-25.44,0Z" transform="translate(336.76 -233.08)"/><path d="M-224,345.43q-27.68,0-55.34,0c-7.55,0-12.5-4.54-12.44-11.35.06-6.61,5-11.06,12.35-11.07h110.69c7.56,0,12.5,4.54,12.44,11.35-.07,6.63-5,11.07-12.35,11.07Q-196.36,345.45-224,345.43Z" transform="translate(336.76 -233.08)"/><path d="M-65.81,345.43q-27.85,0-55.72,0c-7.33,0-12.27-4.47-12.32-11.1-.05-6.79,4.91-11.32,12.47-11.32H-10.69c7.35,0,12.27,4.47,12.32,11.1.05,6.81-4.89,11.32-12.47,11.32Q-38.32,345.45-65.81,345.43Z" transform="translate(336.76 -233.08)"/><path d="M-150.56,459.07c7.27-7.31,13.85-14.08,20.64-20.64a15.69,15.69,0,0,1,6.23-3.79,10.69,10.69,0,0,1,12.21,5,10.78,10.78,0,0,1-1.21,13.17q-14.86,15.27-30.12,30.13c-4.4,4.25-10.79,4-15.21-.26q-9.67-9.33-19-19a11.13,11.13,0,0,1,0-15.8,11,11,0,0,1,15.78-.15C-157.61,451.21-154.3,455.08-150.56,459.07Z" transform="translate(336.76 -233.08)"/></svg>