<svg width="40" height="40" fill="currentColor" xmlns="http://www.w3.org/2000/svg" viewBox="0 0 383.45 383.27"><path d="M-86.38,449.33c-3.48,9.14-10.16,12.82-19.81,12.38-8.59-.39-8.57-.08-10,8.39-8.73,52-36,91.31-81.39,118a151.49,151.49,0,0,1-60.92,20c-2.49.27-3.76,1.05-3.6,3.91a73.63,73.63,0,0,1-.19,11.21A15.57,15.57,0,0,1-278,637.21c-8.19,0-15.1-5.86-15.79-13.93-.4-4.7-.07-9.45-.07-13.75C-377.95,594.72-427,545.83-442,461.44c-4,0-8.72.27-13.38-.06a15.58,15.58,0,0,1-14-12.15c-1.57-6.3,1-13.57,6.84-16.86,2.89-1.64,6.51-2.29,9.88-2.71,3.67-.45,7.43-.1,11.28-.1,1.06-6.06,1.72-11.88,3.11-17.52,16.9-68.46,59.91-110.65,128.34-127.08a103.28,103.28,0,0,1,12.56-1.84c2.42-.27,3.6-1.16,3.32-3.76-.19-1.72.08-3.5-.06-5.23-.79-9.74,2.95-16.66,12.31-20.18h7.49c9.35,3.52,13.1,10.45,12.31,20.17-.13,1.61.16,3.26-.05,4.86-.39,2.93.94,3.87,3.68,4.18a155.43,155.43,0,0,1,73.53,27.95c38.15,27,61.15,63.73,68.67,110,1.37,8.46,1.4,8.77,10,8.37,9.67-.45,16.33,3.24,19.8,12.38Zm-61-19.6c-4.33-32.23-18-58.92-41.22-80.58-20.61-19.21-45-30.54-73.48-34.23,0,3.93,0,7.16,0,10.38,0,5.14-1.78,9.55-5.82,12.83A15.34,15.34,0,0,1-284,340.62c-5.9-2.36-9.41-6.92-9.87-13.36-.27-3.92-.05-7.87-.05-12.38-31.11,4.23-57,17.06-78.37,38.92-20.47,21-32.5,46.11-36.44,75.76,1.92,0,3.26-.07,4.6,0,3.71.22,7.58-.06,11.12.87,7.46,2,11.82,9.14,11,17a15.42,15.42,0,0,1-14.21,14c-3.95.32-7.94.05-12.56.05,4.3,32,17.74,58.48,40.7,80.07,20.71,19.48,45.25,31,74,34.71,0-3.92,0-7.15,0-10.37,0-5.3,1.9-9.79,6.12-13.06a15.36,15.36,0,0,1,16.23-2.09,14.74,14.74,0,0,1,9.51,13.23c.26,3.92,0,7.87,0,12.37,31-4.17,56.83-16.94,78.13-38.66,20.6-21,32.74-46.24,36.68-76-1.92,0-3.26.06-4.59,0-3.61-.18-7.33.09-10.78-.74-7.41-1.79-12.07-9-11.4-16.74a15.45,15.45,0,0,1,14.26-14.35C-155.94,429.46-151.95,429.73-147.33,429.73Z" transform="translate(469.83 -253.95)"/><path d="M-278.25,509.53q-24.67,0-49.36,0c-9.89,0-14.11-4.49-14.45-14.36-.47-13.64,2.56-26,12.31-36,8.45-8.69,18.75-13.43,30.95-13.53,13.84-.11,27.68-.08,41.51,0,22.29.1,41.4,18,42.92,40.23.25,3.6.32,7.23.24,10.84-.18,8-4.83,12.72-12.89,12.81-11.09.12-22.19,0-33.28,0Z" transform="translate(469.83 -253.95)"/><path d="M-278.12,429.75a32.38,32.38,0,0,1-32-32.33A32.36,32.36,0,0,1-278,365.61a32.36,32.36,0,0,1,32,32.32A32.38,32.38,0,0,1-278.12,429.75Z" transform="translate(469.83 -253.95)"/></svg>