<svg width="40" height="40" fill="currentColor" xmlns="http://www.w3.org/2000/svg" viewBox="0 0 359.41 356.77"><path d="M-441.93,298.24c27.45,0,54.9.4,82.33-.16,14.73-.31,27.91,10.51,27.74,28-.3,31.81-.07,63.63-.09,95.44,0,17-10.8,27.8-27.82,27.84-16.72,0-33.44-.07-50.15.11a8.69,8.69,0,0,0-5.42,2.29c-5.83,5.63-11.37,11.56-17.07,17.33-6,6.12-12.88,6.06-18.95-.13-5.67-5.79-11.23-11.7-17.05-17.34a8.18,8.18,0,0,0-5.11-2.16c-16.59-.16-33.18-.08-49.77-.1-17.77,0-28.41-10.64-28.41-28.38q0-47.91,0-95.82c0-13.48,7.82-23.59,20.38-26.36a34.7,34.7,0,0,1,7.43-.5Q-482.9,298.2-441.93,298.24Zm.22,57.61a17.93,17.93,0,0,0-18.08,17.61,18,18,0,0,0,18,18.1,18.05,18.05,0,0,0,17.9-17.87A17.9,17.9,0,0,0-441.71,355.85Zm49.83,0a17.57,17.57,0,0,0-17.85,17.66,17.8,17.8,0,0,0,17.92,18.06,17.81,17.81,0,0,0,17.7-17.94A17.65,17.65,0,0,0-391.88,355.85Zm-82,17.68a17.59,17.59,0,0,0-17.84-17.68,17.66,17.66,0,0,0-17.79,17.76,17.84,17.84,0,0,0,18.06,18A17.79,17.79,0,0,0-473.91,373.53Z" transform="translate(621.61 -298.07)"/><path d="M-539.2,654.69c-22.71,0-45.42-.29-68.12.14-9.24.18-14.41-6.31-14.29-14.21.56-36.65,28.51-68.9,65.14-73.5,18-2.26,36.22-2.68,53.3,5.12,29.31,13.39,44.3,36.72,46.19,68.64.51,8.78-4.6,13.8-13.35,13.81Q-504.77,654.72-539.2,654.69Z" transform="translate(621.61 -298.07)"/><path d="M-344.88,654.69H-413c-9.24,0-13.93-4.91-13.71-14.24.89-38.19,30.27-70.44,68.24-73.83,18.27-1.63,36.77-1.78,53.75,7.19,27.29,14.4,41.45,37.17,42.51,68,.28,8-4.68,12.87-12.67,12.88Q-309.87,654.73-344.88,654.69Z" transform="translate(621.61 -298.07)"/><path d="M-344.27,561.05a51.09,51.09,0,0,1-51.3-51.27,51.34,51.34,0,0,1,51.09-51.21c28.21,0,51.49,23.21,51.45,51.37A51.4,51.4,0,0,1-344.27,561.05Z" transform="translate(621.61 -298.07)"/><path d="M-488.08,510c-.08,28.61-23,51.17-51.88,51.06-27.73-.11-50.78-23.46-50.66-51.32A51.63,51.63,0,0,1-539,458.57,51.32,51.32,0,0,1-488.08,510Z" transform="translate(621.61 -298.07)"/></svg>