<svg  viewBox="0 0 43 43" fill="currentColor" xmlns="http://www.w3.org/2000/svg">
<path d="M41.6562 28.2188H38.9688V21.5C38.9687 16.867 37.1283 12.4238 33.8523 9.14773C30.5762 5.8717 26.133 4.03125 21.5 4.03125C16.867 4.03125 12.4238 5.8717 9.14773 9.14773C5.8717 12.4238 4.03125 16.867 4.03125 21.5V28.2188H1.34375V21.5C1.34375 16.1542 3.46735 11.0274 7.24738 7.24738C11.0274 3.46735 16.1542 1.34375 21.5 1.34375C26.8458 1.34375 31.9726 3.46735 35.7526 7.24738C39.5327 11.0274 41.6562 16.1542 41.6562 21.5V28.2188Z" fill="currentColor"/>
<path d="M9.71531 36.2812H8.0625C7.18018 36.2812 6.3065 36.1075 5.49135 35.7698C4.67619 35.4322 3.93552 34.9373 3.31163 34.3134C2.05162 33.0534 1.34375 31.3444 1.34375 29.5625V26.875C1.34375 25.0931 2.05162 23.3841 3.31163 22.1241C4.57164 20.8641 6.28058 20.1562 8.0625 20.1562H9.71531C10.3498 20.1668 10.9547 20.4263 11.3996 20.8788C11.8445 21.3312 12.0938 21.9404 12.0938 22.575V33.8625C12.0938 34.4971 11.8445 35.1063 11.3996 35.5587C10.9547 36.0112 10.3498 36.2707 9.71531 36.2812ZM8.0625 22.8438C6.99335 22.8438 5.96798 23.2685 5.21198 24.0245C4.45597 24.7805 4.03125 25.8058 4.03125 26.875V29.5625C4.03125 30.6317 4.45597 31.657 5.21198 32.413C5.96798 33.169 6.99335 33.5937 8.0625 33.5938H9.40625V22.8438H8.0625Z" fill="currentColor"/>
<path d="M34.9375 36.2812H33.325C32.6835 36.2812 32.0683 36.0264 31.6147 35.5728C31.1611 35.1192 30.9062 34.504 30.9062 33.8625V22.575C30.9062 21.9335 31.1611 21.3183 31.6147 20.8647C32.0683 20.4111 32.6835 20.1562 33.325 20.1562H34.9375C36.7194 20.1563 38.4284 20.8641 39.6884 22.1241C40.9484 23.3841 41.6562 25.0931 41.6562 26.875V29.5625C41.6562 31.3444 40.9484 33.0534 39.6884 34.3134C38.4284 35.5734 36.7194 36.2812 34.9375 36.2812ZM33.5938 33.5938H34.9375C36.0067 33.5937 37.032 33.169 37.788 32.413C38.544 31.657 38.9687 30.6317 38.9688 29.5625V26.875C38.9687 25.8058 38.544 24.7805 37.788 24.0245C37.032 23.2685 36.0067 22.8438 34.9375 22.8438H33.5938V33.5938Z" fill="currentColor"/>
<path d="M8.0625 21.5H9.71531C10.0004 21.5 10.2739 21.6133 10.4755 21.8149C10.6771 22.0165 10.7903 22.2899 10.7903 22.575V33.8625C10.7903 34.1476 10.6771 34.421 10.4755 34.6226C10.2739 34.8242 10.0004 34.9375 9.71531 34.9375H8.0625C6.63696 34.9375 5.26981 34.3712 4.2618 33.3632C3.25379 32.3552 2.6875 30.988 2.6875 29.5625V26.875C2.6875 25.4495 3.25379 24.0823 4.2618 23.0743C5.26981 22.0663 6.63696 21.5 8.0625 21.5Z" fill="currentColor"/>
<path d="M34.9375 34.9375H33.325C33.0399 34.9375 32.7665 34.8242 32.5649 34.6226C32.3633 34.421 32.25 34.1476 32.25 33.8625V22.575C32.25 22.2899 32.3633 22.0165 32.5649 21.8149C32.7665 21.6133 33.0399 21.5 33.325 21.5H34.9375C36.363 21.5 37.7302 22.0663 38.7382 23.0743C39.7462 24.0823 40.3125 25.4495 40.3125 26.875V29.5625C40.3125 30.988 39.7462 32.3552 38.7382 33.3632C37.7302 34.3712 36.363 34.9375 34.9375 34.9375Z" fill="currentColor"/>
<path d="M32.1022 41.6562H22.8438C22.4874 41.6562 22.1456 41.5147 21.8936 41.2627C21.6416 41.0107 21.5 40.6689 21.5 40.3125C21.5 39.9561 21.6416 39.6143 21.8936 39.3623C22.1456 39.1103 22.4874 38.9688 22.8438 38.9688H32.25C32.6064 38.9688 32.9482 38.8272 33.2002 38.5752C33.4522 38.3232 33.5938 37.9814 33.5938 37.625V34.9375H36.2813V37.625C36.2837 38.2841 36.1246 38.9338 35.8177 39.5171C35.5108 40.1005 35.0655 40.5996 34.5209 40.9709C33.8034 41.4406 32.9595 41.6797 32.1022 41.6562Z" fill="currentColor"/>
</svg>
