<svg width="40" height="40" fill="currentColor" xmlns="http://www.w3.org/2000/svg" viewBox="0 0 383.33 381.62"><path d="M-465.21,533.07c1.79-6.78,4.12-13.27,9-18.56,7.22-7.82,16-12.06,26.72-12.1q18.14-.09,36.27,0A35.71,35.71,0,0,1-357.45,538q.12,36.27,0,72.54a35.71,35.71,0,0,1-35.75,35.57c-11.84.06-23.68,0-35.52,0-17.73,0-31.73-11.26-35.75-28.59a19.81,19.81,0,0,0-.74-2.08Zm23.94,41.17c0,11.48,0,23,0,34.43,0,8.58,4.89,13.45,13.48,13.48q16.47,0,32.93,0c8.59,0,13.47-4.9,13.48-13.48q0-34.44,0-68.86c0-8.54-4.95-13.46-13.48-13.48q-16.27-.06-32.56,0c-9,0-13.84,4.82-13.85,13.86Q-441.29,557.2-441.27,574.24Z" transform="translate(465.21 -264.5)"/><path d="M-465.21,372.88c3.32-6.79,8.86-9.11,16.18-8.52,4.46.36,9,.12,13.46.06,7.32-.1,10.95-2.75,13.27-9.68,1.73-5.18,3.38-10.4,5.1-15.59,2-6.14,6.35-9.6,11.89-9.59s9.83,3.45,11.87,9.62c1.76,5.31,3.44,10.65,5.22,16,2.1,6.27,5.82,9.1,12.44,9.26,5.73.13,11.47,0,17.2.05,6.65.09,10.87,3,12.62,8.48,1.66,5.22-.19,10.14-5.34,13.94-4.61,3.4-9.31,6.69-13.91,10.1-5.09,3.79-6.64,8.38-4.78,14.45,1.71,5.58,3.65,11.09,5.4,16.67,1.87,5.93.34,11.19-4.05,14.35s-9.87,3.07-14.94-.53c-4.77-3.39-9.44-6.94-14.22-10.31-5.24-3.69-9.94-3.62-15.19.13-4.67,3.33-9.27,6.76-13.93,10.08-5.29,3.77-10.62,3.92-15.23.53-4.32-3.18-5.75-8.39-3.85-14.4,1.68-5.34,3.47-10.63,5.15-16,2.1-6.69.64-11.14-5-15.32-3.71-2.73-7.67-5.17-11.13-8.19-3-2.62-5.49-5.87-8.21-8.84ZM-389.63,387l-15.63-11.42-16.2,11.64a88.06,88.06,0,0,1,3.91,8.92,85.81,85.81,0,0,1,2,9.39h19.77C-393.66,399.16-391.58,392.85-389.63,387Z" transform="translate(465.21 -264.5)"/><path d="M-299.32,316.78c4.64-14.22,9.17-28.16,13.73-42.1,2.15-6.61,6.19-10.06,11.83-10.17s10,3.5,12.2,10.18c4.55,13.94,9.09,27.89,13.72,42.09h44.9c6.52,0,10.87,2.94,12.66,8.45,1.69,5.21-.12,10.19-5.28,14-11.16,8.17-22.32,16.35-33.6,24.36-2.23,1.58-2.67,2.92-1.8,5.5,4.44,13.2,8.72,26.46,12.94,39.73,2.39,7.55-1.17,14.36-8.31,16.14-4.2,1-7.8-.32-11.19-2.81q-16.28-11.94-32.65-23.76c-1.1-.79-2.22-1.54-3.46-2.4-12.19,8.85-24.3,17.6-36.37,26.41-4.3,3.13-8.81,4-13.64,1.46-5.43-2.86-7.56-8.6-5.49-15.08,4.24-13.26,8.5-26.52,12.94-39.72.88-2.61.37-3.95-1.82-5.51q-16.92-12-33.62-24.35c-6.35-4.66-7.71-12-3.38-17.6a12.31,12.31,0,0,1,10.44-4.81C-329.61,316.82-314.65,316.78-299.32,316.78Zm59.55,24.76-.26-.76h-12.9c-10.42,0-13-1.9-16.24-11.73-1.32-4-2.7-8.07-4.05-12.11A81.8,81.8,0,0,0-278,329.24c-3.05,9.43-5.87,11.53-15.64,11.53H-307.2a98.26,98.26,0,0,0,11,8.93c7.21,5.27,8.51,9.25,5.76,17.68-1.44,4.43-2.85,8.86-4.61,14.31l10.88-7.89c9.12-6.6,12.14-6.59,21.34.09l10.69,7.75c-1.82-5.56-3.27-10-4.72-14.49-2.61-8-1.27-12.22,5.46-17.15Z" transform="translate(465.21 -264.5)"/><path d="M-327.46,550.18c0-19.71,0-39.42,0-59.12,0-21,15.67-36.53,36.67-36.57,11.85,0,23.7-.06,35.55,0A35.67,35.67,0,0,1-219.73,490q.12,60.24,0,120.48a35.69,35.69,0,0,1-35.72,35.63q-18.15.09-36.3,0a35.73,35.73,0,0,1-35.7-35.65C-327.52,590.34-327.46,570.26-327.46,550.18Zm83.83.58q0-29.19,0-58.38c0-9.12-4.76-13.94-13.76-14q-16.28,0-32.56,0c-8.73,0-13.58,4.92-13.58,13.75q0,58.2,0,116.39c0,8.78,4.88,13.57,13.75,13.59q16.09,0,32.19,0c9.27,0,13.95-4.75,14-14.13Q-243.61,579.39-243.63,550.76Z" transform="translate(465.21 -264.5)"/><path d="M-189.73,574.07c0-12-.05-23.94,0-35.92a35.74,35.74,0,0,1,35.61-35.74q18.33-.11,36.67,0A35.69,35.69,0,0,1-82,537.92q.12,36.3,0,72.58a35.7,35.7,0,0,1-35.41,35.57q-18.51.1-37,0a35.74,35.74,0,0,1-35.27-35.32C-189.79,598.52-189.73,586.29-189.73,574.07Zm23.92.17c0,11.48,0,23,0,34.43,0,8.59,4.89,13.45,13.48,13.48q16.47,0,32.94,0c8.58,0,13.46-4.9,13.47-13.48q0-34.44,0-68.86c0-8.54-5-13.46-13.48-13.48q-16.28-.06-32.56,0c-9,0-13.84,4.82-13.85,13.86Q-165.83,557.22-165.81,574.24Z" transform="translate(465.21 -264.5)"/><path d="M-180.21,364.41c3.11,0,6.23.13,9.34,0,6.24-.31,9.87-3.09,11.87-9,1.79-5.3,3.48-10.63,5.22-15.94,2.12-6.45,6.37-9.93,12-9.87s9.75,3.47,11.8,9.7c1.72,5.19,3.38,10.4,5.11,15.58,2.24,6.71,5.93,9.46,13,9.57,5.61.09,11.22,0,16.83,0,6.6.09,10.85,3,12.57,8.53,1.64,5.21-.23,10.1-5.39,13.92-4.51,3.32-9.08,6.56-13.6,9.89-5.48,4-7,8.52-4.94,15,1.71,5.45,3.59,10.85,5.3,16.3,1.86,5.93.31,11.21-4.09,14.34s-9.91,3-14.95-.57c-4.57-3.24-9.06-6.6-13.62-9.86-5.87-4.19-10.28-4.19-16.08,0-4.66,3.34-9.25,6.76-13.94,10.06-5.06,3.56-10.4,3.62-14.91.29-4.19-3.09-5.74-8.39-4-14.06,1.7-5.46,3.58-10.86,5.3-16.31,2.11-6.68.63-11.14-5-15.31-4.51-3.32-9.08-6.56-13.6-9.88-4.94-3.63-6.82-8.54-5.3-13.64,1.6-5.36,5.9-8.49,12.1-8.67,3-.09,6,0,9,0Zm22.7,22.48,6,18.6h19.23l6.09-18.57-15.64-11.41Z" transform="translate(465.21 -264.5)"/></svg>