<svg width="40" height="40" fill="currentColor" viewBox="0 0 383.58 343.97"><path d="M-340.56,386.7c-.62,2.39-1.16,4.81-1.86,7.18-4.39,14.8-13.49,25.67-27.42,32.36-5.73,2.74-11.64,5.08-17.35,7.87a6.4,6.4,0,0,0-2.95,3.62c-1.45,5.13-2.53,10.36-3.89,16.15,19-3.12,34.43,7.11,51.6,12.56-4.32,10.73-7.77,21.33-12.72,31.17-11.59,23-38.69,32.74-63.69,23.5-3.86-1.42-7.64-3.06-11.55-4.31a5.07,5.07,0,0,0-4,.43c-6.89,5.33-13.62,10.87-20.58,16.47a15.78,15.78,0,0,0,1.55,1.34,50.21,50.21,0,0,1,18.47,23.46c3.28,8.59,6.47,17.22,9.91,26.39-15.69,4.66-29.86,13.92-47,12.35-20.09-1.84-34.41-12-43-30.24a36.84,36.84,0,0,1-2.82-7.3c-.85-3.68-2.64-4.89-6.51-4.6a158.61,158.61,0,0,1-17.58,0c-2.43-.09-3.51.67-4.25,3-3.14,9.72-7.5,18.82-15.32,25.72-14.73,13-31.66,16.89-50.44,11-9.24-2.88-18.22-6.61-27.65-10.08,7.77-18.62,10.75-39.65,30.21-50.79-7.31-5.9-14.2-11.59-21.27-17-.86-.66-2.79-.36-4.05,0-7,2.2-13.78,5.32-20.92,6.74a49.71,49.71,0,0,1-54.94-28.15c-4.26-9.36-7.61-19.15-11.54-29.15,17.05-5.3,32.37-15.65,51.41-12.51-1.38-6.19-2.57-12-4-17.73-.23-.91-1.69-1.68-2.74-2.17-6-2.78-12.1-5.3-18-8.18A50.32,50.32,0,0,1-721,363c3.54-9.54,8.08-18.71,12.41-28.61,14.35,7.35,30.29,11,41.79,23.17,2-4.29,4-8.26,5.68-12.4.41-1.06-.19-2.84-.87-3.94-4.78-7.73-8.38-15.84-9-25.05-1.31-19.21,5.58-34.81,21.21-46,8.38-6,17.56-10.85,26.86-16.52,6.89,13.8,17.58,25.21,20.32,40.78a50.94,50.94,0,0,1-22.55,51.75,112.56,112.56,0,0,1-10.9,6.53c-3.82,1.89-6,4.83-7.71,8.6-30.16,66.4,6.63,146.24,76.8,166.51,64.49,18.63,130.68-16.5,150.9-80.37,9.63-30.44,7.16-60.26-6.37-89.14a10.6,10.6,0,0,0-3.66-4c-6.11-4.08-12.78-7.44-18.44-12a50,50,0,0,1-13-61.28c4.73-9.28,10.47-18,16-27.52,10.07,6.36,20.33,11.71,29.28,18.73,19.93,15.61,24.65,43,11.69,65-2.8,4.76-4,8.63-.55,13.38,1.41,1.95,2.07,4.46,3.22,7.07,11.37-12.36,27.35-15.76,41.78-23.37,5.43,13.2,12.38,25.27,15.53,38.92Zm-340.08,21c10.28-17,1.66-39.21-16.49-42.87C-707.18,381.56-699.23,401.67-680.64,407.69Zm313-42.94c-18.7,5.3-27.1,27.44-16.24,42.81C-364.95,401.06-357.36,381-367.67,364.75ZM-692.48,479.61c5.36,19.42,26.07,28.58,41.88,18.68C-654,481.59-673.19,469.72-692.48,479.61Zm320.34,0c-20.52-10.52-39.64,3.71-41.77,19C-395.82,507.31-377.66,499.15-372.14,479.63ZM-642.06,329.71c18.06-8,23.45-29.89,11-44.58C-650.39,293.94-653.3,316.27-642.06,329.71Zm73.77,222.44c-18.22-8.82-36.88-.23-41.86,19.1C-593,580.42-573.77,571.75-568.29,552.15Zm113.87,19.19c-5.18-21.34-28-27.87-41.87-18.83C-490.32,572-472.88,579.91-454.42,571.34Zm31.85-241.51c12.1-16.08,7-36.28-11.16-44.75C-445.68,301.28-441,320.45-422.57,329.83Z" transform="translate(724.14 -253.51)"/><path d="M-626.53,402.17l59.84-27.44c10.64-4.88,21.26-9.81,32-14.58a6.11,6.11,0,0,1,4.44-.21q45.06,20.46,90,41.17a20.72,20.72,0,0,1,2,1.24l-22.33,10.34c8.89,9.94,14.49,21.19,15.86,34.88l-22.3,1.94c-1.2-7.23-3.54-13.78-8.92-19.79-.09,1.91-.2,3.09-.2,4.27,0,11.73-.05,23.46,0,35.2a4.08,4.08,0,0,1-2.56,4.33c-17.16,8.57-34.25,17.29-51.42,25.82a5.57,5.57,0,0,1-4.35,0c-17.18-8.54-34.26-17.27-51.44-25.82-2.17-1.09-2.65-2.44-2.64-4.67.09-15.35,0-30.7.11-46.06,0-2.38-.79-3.51-2.89-4.45-10.45-4.68-20.85-9.51-31.26-14.29C-623.67,403.56-624.76,403-626.53,402.17Zm127.92,28.12c-1.41.56-2.54.95-3.63,1.45-9,4.14-18,8.41-27.17,12.35a8.19,8.19,0,0,1-5.85,0c-8.34-3.58-16.54-7.51-24.79-11.3-1.86-.85-3.76-1.65-6-2.62,0,9-.06,17.5.09,26a4.22,4.22,0,0,0,1.95,3q14.73,7.67,29.62,15a5.25,5.25,0,0,0,4.06,0q14.91-7.31,29.64-15a4.22,4.22,0,0,0,2-3C-498.54,447.7-498.61,439.22-498.61,430.29Zm-73.45-28.23a14.52,14.52,0,0,0,1.73,1.13c12,5.52,23.92,11.08,36,16.42a6.64,6.64,0,0,0,4.81-.25c10.91-4.84,21.74-9.87,32.59-14.85,1.43-.66,2.82-1.43,4.67-2.37-13.13-6-25.76-11.87-38.44-17.58a4.72,4.72,0,0,0-3.48.15C-546.78,390.39-559.28,396.18-572.06,402.06Z" transform="translate(724.14 -253.51)"/></svg>