<svg fill="currentColor" width="40" height="40" xmlns="http://www.w3.org/2000/svg" viewBox="0 0 300.92 366.61"><path d="M-371.83,566.43l-60-59.95c11-10.45,22-21.37,33.52-31.6,6.78-6,15.36-8.59,24.52-8.65,9-.06,18,0,26.95-.1a42.85,42.85,0,0,1,24,7.09,21.46,21.46,0,0,0,12.29,3.37c17.84-.22,35.68-.18,53.52,0,11.36.08,19,8,18.53,18.87-.41,8.67-7.21,16.09-15.89,16.46-10,.42-19.95.22-29.93.25-7.36,0-14.72,0-22.08,0-4,0-6.2,1.61-6.26,4.38s2.13,4.45,6.09,4.45c16.72,0,33.44.07,50.15,0,15.19-.08,26.58-11.56,26.9-26.78a6.53,6.53,0,0,1,1.34-4q16-17.54,32.3-34.86c4.2-4.46,9.72-4.95,15-1.82s8.16,9.14,6.54,14.54a16.76,16.76,0,0,1-2.55,4.93q-23.11,32-46.34,63.89c-9.79,13.36-22.92,20.14-39.69,20-28.2-.18-56.39.1-84.59-.14C-357.22,556.66-365.73,558.78-371.83,566.43Z" transform="translate(474.76 -243.34)"/><path d="M-344.77,451c0-11.7-.71-23.21.21-34.59.87-10.76,7.43-18.83,16.18-24.91a90.23,90.23,0,0,1,9.69-5.59c6.1-3.21,11.29-4,18.31.19,15.37,9.11,31.23,7.33,46.13-2.59,1.08-.72,2.77-1.4,3.89-1.07,10.58,3.08,20.12,8,27.42,16.56a33.41,33.41,0,0,1,8.37,22.24c0,9.83,0,19.67,0,29.76Z" transform="translate(474.76 -243.34)"/><path d="M-393.68,610l-81.08-81.11,25.48-25.42,81,81.14Z" transform="translate(474.76 -243.34)"/><path d="M-314.26,348a34.6,34.6,0,0,1,34.64-34.36,34.58,34.58,0,0,1,34.28,35.09,34.61,34.61,0,0,1-34.45,34.18A34.63,34.63,0,0,1-314.26,348Z" transform="translate(474.76 -243.34)"/><path d="M-384.73,347.73l24-23.67v15h31.49v18.4h-31.21V372Z" transform="translate(474.76 -243.34)"/><path d="M-198.84,372.35V357.72h-31.41V339.16H-199V324.84l23.87,23.89C-182.48,356.05-190.57,364.1-198.84,372.35Z" transform="translate(474.76 -243.34)"/><path d="M-279.75,243.34l24.05,24.14h-15V299H-288.9V267.5h-15.05Z" transform="translate(474.76 -243.34)"/></svg>