<svg  width="40" height="40" fill="currentColor" xmlns="http://www.w3.org/2000/svg" viewBox="0 0 350.41 337.62"><path d="M-379.74,589.59a1.29,1.29,0,0,0,.34,0c3.32-.64,7.3-.38,9.74-2.2s3.12-5.63,4.82-9.06a19.62,19.62,0,0,1,1.74,3.53c1.31,5.15,4.62,7.38,9.83,7.17a18.69,18.69,0,0,1,3.7.8c-6.95,4.56-9.34,10.28-5.78,17.43-.74.25-1,.42-1.09.35-5.78-4.51-11.52-5.07-17.55,1.29.25-2.39.11-3.7.54-4.78,2.76-6.87-1.7-10.37-6.29-13.85Z" transform="translate(379.74 -271.29)"/><path d="M-243.27,558.48c1.86-14.81,3.71-29.49,5.56-44.16q3.26-25.76,6.53-51.5c.78-6.21,1.4-12.45,2.41-18.62a8.72,8.72,0,0,0-2.4-8.25c-15.12-16.35-23.45-36.09-27.92-57.63-.17-.82,1-2,1.71-2.9.22-.3.85-.27,1.26-.45,4-1.73,7.22-1.39,11.11,1.47,10.64,7.84,22,3.68,25.73-9,3.9,3,8.08,5,13.17,4.13A14.47,14.47,0,0,0-195,363.38a4,4,0,0,1,2.51-2c7-.82,13.93-1.44,21.21-2.15l4.06,10.54c-5.17,5-10.65,9.61-15.39,14.92a57.61,57.61,0,0,0-12.69,25c-.44,1.78-.48,3.51,1.51,3.74.83.1,2.46-1.54,2.75-2.64,4.22-16.27,13.65-28.59,27.92-37.29,2.28-1.39,2.3-2.6,1.17-5a84.2,84.2,0,0,1-4.81-12.92c-.77-2.68-1.78-3.21-4.35-2.36-11.11,3.71-22.44,4.94-34,2.17a20.55,20.55,0,0,1-11.56-6.83c-4.72-5.81-2.77-12.42,4.43-14.4q18.73-5.14,37.56-10c3.91-1,7.72-.71,10.8,2.42,7.5,7.63,15.06,15.2,22.5,22.89a122.9,122.9,0,0,1,8.13,9.24c5.78,7.32,6.92,15.26,3.2,24a234.17,234.17,0,0,1-24.06,42.39,13.84,13.84,0,0,0-2.69,8.5q.16,60.19.11,120.41v4.36Z" transform="translate(379.74 -271.29)"/><path d="M-289,507h6.89c3.88,27.48-8.51,50.28-34.49,57-24.85,6.49-49.67-8.92-55.85-33.94a28.42,28.42,0,0,1-1-6.05c-.13-5.56,0-11.13,0-17h8c3.05-10.63,6-21,9-31.34q11.19-39.36,22.36-78.71c.54-1.88.56-3.21-.9-4.88-3.32-3.77-2.8-8.88.87-12.61a8.78,8.78,0,0,1,11.8-1c3.78,2.76,5.22,8.18,2.71,12.18-1.41,2.25-1.21,4.09-.56,6.36q15.18,53.46,30.26,107C-289.78,504.86-289.46,505.71-289,507Zm-5.49-.94c-.21-1.1-.3-1.9-.52-2.66q-14.83-52.49-29.75-104.95a4.22,4.22,0,0,0-2.21-2.63c-2.17-.65-2.42,1.24-2.87,2.8q-13.31,47.08-26.66,94.16c-1.23,4.33-2.44,8.67-3.74,13.28Z" transform="translate(379.74 -271.29)"/><path d="M-30,430.05c1.79,19.38-1.58,36.55-17.67,48.73-14.7,11.13-31,13-47.63,5.18s-25.48-21.48-26.41-40c-.23-4.52,0-9.06,0-13.87h7.83c.42-1.11.84-2,1.11-3q15-52.79,30.05-105.56c.58-2,.71-3.62-.87-5.55-3-3.72-2.32-9.06,1.12-12.4a8.93,8.93,0,0,1,11.58-.78,10.35,10.35,0,0,1,3.27,12.23,8.13,8.13,0,0,0-.61,5q15,53.52,30.11,107c.61,2.16,1.43,3.42,3.92,3A28.27,28.27,0,0,1-30,430.05Zm-12.4-.93L-73.22,319.9l-4.42.4-30.81,108.82Z" transform="translate(379.74 -271.29)"/><path d="M-279.09,601.23c0-3.34-.05-6.28,0-9.22.08-4.63,2.52-7.17,7.11-7.47.91-.06,1.82,0,2.73,0h134.46a27.76,27.76,0,0,1,3.76.16,6.36,6.36,0,0,1,5.85,6.45c.12,3.18,0,6.37,0,10.11h58.85a6.88,6.88,0,0,1,2.7.13c.8.37,1.82,1.28,1.86,2a3,3,0,0,1-1.55,2.27,8.66,8.66,0,0,1-3.36.27h-271c-.68,0-1.5.23-2-.06a24.56,24.56,0,0,1-3-2.25c1-.79,2.07-2.24,3.13-2.26,9.46-.18,18.93-.11,28.4-.11Z" transform="translate(379.74 -271.29)"/><path d="M-256.33,579.75c0-3.51-.23-6.92.06-10.28.31-3.54,2.68-5.64,6.29-6.12a29.25,29.25,0,0,1,3.75-.15h88.51c7.88,0,9.94,2,9.94,9.87,0,2.15,0,4.29,0,6.68Z" transform="translate(379.74 -271.29)"/><path d="M-262.13,344.54c.26-8.11,3.28-13,8.63-16.65a7.21,7.21,0,0,1,10.81,4.6c1.22,5.13,4.37,9.88,7.14,14.53s6.19,8.73,9.06,13.24,2.5,8.75-.63,12.27-7.54,4.47-12.15,2.54a19.65,19.65,0,0,1-4.71-2.7,54,54,0,0,1-15.83-19.85A46.26,46.26,0,0,1-262.13,344.54Z" transform="translate(379.74 -271.29)"/><path d="M-49.3,585.93c-8.59-8.28-16.57-15.6-19.31-26.69-1-4.14.36-7.64,3.52-10.42,2.89-2.55,6.25-4.15,10-2.32,2.22,1.08,4,3.09,6,4.7,5.29-5.82,9.11-6.7,15-3.06,4,2.48,5.73,6.29,4.27,10.82a30.11,30.11,0,0,1-4.36,9.14C-38.83,574.1-44,579.71-49.3,585.93Z" transform="translate(379.74 -271.29)"/><path d="M-328.47,332.29c-5.16-6.37-10.11-12.29-14.8-18.4a20.63,20.63,0,0,1-2.85-6.16c-2.07-6.48.14-11.7,6-14.59,4.62-2.28,8.77-.65,12.88,5.17,2.2-4.72,5.93-6.53,10.91-5.63,4.47.8,8.63,4.38,8.69,8.45a21.18,21.18,0,0,1-2.24,9.41C-314.08,318.93-320.77,325.32-328.47,332.29Z" transform="translate(379.74 -271.29)"/><path d="M-144,336.82c-4.38-3.68-8.71-7.22-12.92-10.89a26.67,26.67,0,0,0-13.26-6.64,3.78,3.78,0,0,1-2.52-2.28c-1.58-6.44,1.32-14.27,6.31-17.66,5.45-3.71,14.14-3.6,19.72.18,4.79,3.23,6.49,8.13,6,13.38C-141.4,321.34-143,329.71-144,336.82Z" transform="translate(379.74 -271.29)"/><path d="M-210.87,328c-3.81,2.77-7.44,4.65-10,7.48-4.69,5.14-3.27,12.8,2.79,18.1,4.84,4.23,10.86,5.53,16.91,6.73l1.62.33c-3.05,7.28-11.2,9.05-16.27,3.46-5.52-6.07-10.91-12.28-16-18.72-4.36-5.5-7.75-11.55-7-19.05,1.11-11.57,12.38-14.64,19.81-13.15a5.72,5.72,0,0,1,3.43,2.91C-213.73,320.23-212.24,324.52-210.87,328Z" transform="translate(379.74 -271.29)"/><path d="M-177.24,320.37l-28.32,7.56c-7.11-10.12-3.56-24.91,6.83-28.45a17.79,17.79,0,0,1,16.6,2.37c3.3,2.34,5.33,5.49,4.93,9.88C-177.44,314.42-177.24,317.16-177.24,320.37Z" transform="translate(379.74 -271.29)"/><path d="M-313.33,387.54l-3.2-10.48L-301,372.4c12.5-3.76,25-7.5,37.49-11.33,2-.61,3.23-.54,4.46,1.45a77.63,77.63,0,0,0,5.54,7.08Z" transform="translate(379.74 -271.29)"/><path d="M-139.88,335.51c.67-4.11,1.14-7.46,1.82-10.76a2.84,2.84,0,0,1,1.69-1.73c15.27-4.65,30.57-9.21,45.74-13.76,1.06,3.53,2.06,6.84,3.17,10.55Z" transform="translate(379.74 -271.29)"/><path d="M-44.23,271.29c2.08,7.67,6.09,12.13,14.52,10.79v.84a56.51,56.51,0,0,1-4.48,4.79,5.73,5.73,0,0,0-2,6.27,36,36,0,0,1,.84,7.12c-5.92-5.27-11.69-5.47-17.91.07,2.32-7.6,1.68-13.86-5.92-18.36C-50.65,283.31-46.26,279.05-44.23,271.29Z" transform="translate(379.74 -271.29)"/></svg>