<svg fill="currentColor" width="40" height="40" xmlns="http://www.w3.org/2000/svg" viewBox="0 0 383.36 383.02"><path d="M-659.79,145h250c2.91,2.24,6.1,4.2,8.69,6.78,29.44,29.3,58.75,58.74,88.21,88a16.91,16.91,0,0,1,5.35,13q-.24,25.64,0,51.27a9.34,9.34,0,0,0,2.16,5.56,81.1,81.1,0,0,1,17.4,32.69c.95,3.56,1.62,7.2,2.41,10.81v17.22a11.43,11.43,0,0,0-.69,2.07c-1.6,12.74-6.42,24.2-13.54,34.82a12.33,12.33,0,0,0-2.08,6.44c-.13,33.81-.34,67.62.07,101.42.12,9.48-8.35,16.09-17.77,11.42-13.05-6.45-26.47-12.14-39.67-18.3a6.76,6.76,0,0,0-6.32,0c-13.32,6.18-26.64,12.35-40.09,18.23a15.85,15.85,0,0,1-8.59,1.21c-5.94-1.07-8.73-5.64-8.74-13,0-32.31,0-64.62-.11-96.93,0-2.23-1.2-4.64-2.38-6.65-2.39-4.08-5.42-7.79-7.65-11.93-1.45-2.68-3-3.55-6.05-3.55-71.85.1-143.71,0-215.56.21-8.65,0-14.22-4.74-14.19-14.05q.35-111.15,0-222.3C-668.87,152.36-666.6,147.48-659.79,145Zm217.64,228c-2.93-30.56,6.84-55.91,31.47-74.18s51.8-19.92,80.16-8.3V261h-4.26q-38,0-76,0a17.81,17.81,0,0,1-4.79-.49c-5.49-1.63-8.13-5.81-8.14-12.77q0-37.78,0-75.59c0-1.43-.16-2.86-.25-4.27H-646V373Zm76.06,44.87c29,1.11,55.78-20.7,58-52.93,2.08-29.73-22.07-57.16-52-59-31.73-1.95-58.39,21.41-60,53.47C-421.63,391-396.81,416.81-366.09,417.89ZM-324.54,430c-25.11,13.47-50.07,14-75.42,2v67.17c10.75-4.89,21.17-9.55,31.51-14.38a13.13,13.13,0,0,1,12.16,0c3,1.5,6.11,2.78,9.16,4.17l22.59,10.25Zm-76.13-245.28v53.6h53.6Z" transform="translate(668.88 -145.02)"/><path d="M-543.39,326.19h-69.24a10.67,10.67,0,0,1-10-5.95,10.65,10.65,0,0,1,.49-11.36c2.35-3.63,5.86-5.18,10.19-5.17,14.72.05,29.44,0,44.16,0q46.41,0,92.82,0c9.12,0,14.81,8.3,11,16.06-2.18,4.47-5.93,6.42-10.92,6.4Q-509.15,326.14-543.39,326.19Z" transform="translate(668.88 -145.02)"/><path d="M-543.76,236.42q-34.25,0-68.49,0c-4.85,0-8.49-2-10.6-6.3a10.66,10.66,0,0,1,1.09-11.65c2.59-3.48,6.25-4.6,10.51-4.59q50.89.08,101.8,0c11.72,0,23.45-.06,35.18,0A11.28,11.28,0,0,1-463,223.47a11,11,0,0,1-7.51,12.3,18.22,18.22,0,0,1-5.52.62Q-509.89,236.45-543.76,236.42Z" transform="translate(668.88 -145.02)"/><path d="M-543.76,281.33q-34.07,0-68.12,0c-6.53,0-11.24-3.83-12-9.47a11.21,11.21,0,0,1,11.11-13c1.87,0,3.74,0,5.61,0q66.06,0,132.12,0c4.61,0,8.27,1.66,10.61,5.71a10.62,10.62,0,0,1-.11,11.36c-2.23,3.74-5.66,5.44-10,5.44-10.6,0-21.2,0-31.81,0Z" transform="translate(668.88 -145.02)"/><path d="M-364.18,328.29a33.49,33.49,0,0,1,33.74,33.25,33.76,33.76,0,0,1-33.72,34.15,33.87,33.87,0,0,1-33.6-33.56A33.57,33.57,0,0,1-364.18,328.29Zm-.05,22.52a11.33,11.33,0,0,0-11,11.34,11.46,11.46,0,0,0,11.17,10.93,11.43,11.43,0,0,0,11.23-11.23A11.27,11.27,0,0,0-364.23,350.81Z" transform="translate(668.88 -145.02)"/></svg>