<svg width="40" height="40" fill="currentColor" xmlns="http://www.w3.org/2000/svg" viewBox="0 0 381.97 383.24"><path d="M-276.17,634.52c-6.18-2.79-8.35-7.51-8.32-14.3.21-42.9.1-85.81.11-128.71,0-7.4,2.21-10.6,9.16-13.16,5.72-2.11,11.44-4.2,17.19-6.22,7.12-2.51,13,.14,15.59,7.2q24.06,65.9,48,131.82c2.72,7.5-.05,13.09-7.63,16-6.48,2.45-13,4.94-19.44,7.41Z" transform="translate(284.49 -251.27)"/><path d="M-220.54,473.13c14.3-4.68,27.82-11.19,42.82-13.22,23.22-3.15,45.3.58,64.87,13.23,15.43,10,31.93,15.26,49.76,17.74,7.27,1,14.49,2.38,21.69,3.81,14.59,2.89,23.72,15.27,22.71,30.57-.87,13.23-12.63,24.87-26.67,25-7.24.09-14.53-1.79-21.76-3-20.11-3.47-40.19-7.11-60.3-10.62a11.31,11.31,0,0,0-12.46,8.41c-1.35,6,1.9,11.86,8,13.28,7.51,1.74,15.15,2.92,22.74,4.26,18,3.18,36.06,6.17,54.05,9.49,27.15,5,54.61-14.6,58.16-42,.63-4.93,2.38-7.59,7.14-9.66,15.53-6.74,30.7-14.27,46.1-21.29,17.78-8.1,36.62,1.45,40.63,20.42a28,28,0,0,1-14.27,30c-20.18,10.84-40.54,21.35-60.83,32C1,592.45-19.92,603.22-40.66,614.33c-13,6.94-26.45,8.61-40.87,6.36-18.94-3-38-5.3-57-7.93-10.24-1.41-20.48-2.79-30.69-4.39a5,5,0,0,1-3.33-2.59q-24.07-65.7-47.91-131.47A6.38,6.38,0,0,1-220.54,473.13Z" transform="translate(284.49 -251.27)"/><path d="M-1.08,500.61c-10-20.46-27.82-28.21-49.33-30.73l3.86-1.55c15.63-6.33,24.13-22.21,19.62-37-2.92-9.58-9.68-15.9-18.51-19.92-8-3.65-16.32-6.76-24.52-10-2.43-1-4.75-2.07-4.56-5.13s2.09-5,4.86-6.06c5.43-2.09,10.81-1.5,16,.77a64.41,64.41,0,0,1,7.78,4.41c5.25,3.24,11.52,2.32,15.08-2.31,3.78-4.9,3.34-11.49-1.72-15.35-13.12-10-27.67-14.19-43.85-8.85-19.38,6.39-26.84,29.24-14.48,44.41a28.5,28.5,0,0,0,9.64,7.37c7.52,3.56,15.42,6.32,23.1,9.55A30.64,30.64,0,0,1-51.31,434c4.35,3.35,4.38,7.26.34,11s-8.9,4.31-14,3.72a27.31,27.31,0,0,1-16.32-7.55c-5-4.82-10.34-5.72-15.13-2.63s-6.09,8.36-3.61,14.91c.06.17-.06.4-.15.89-22.49-13.5-46.82-19.29-73.82-17.31,1.48-8,2.42-15.47,4.31-22.71q12.73-48.79,53.34-78.89a9.85,9.85,0,0,1,5.41-1.76q47.34-.15,94.69,0a9.65,9.65,0,0,1,5.42,1.74C21.45,359.72,40.87,391.77,45.54,432c1.71,14.8,1.07,29.87,1.36,44.82a3.66,3.66,0,0,1-1.77,2.75c-15,7.08-30,14-45,21A5.51,5.51,0,0,1-1.08,500.61Z" transform="translate(284.49 -251.27)"/><path d="M-25.7,311.13H-80.35c-6.11,0-12.22-.08-18.34.05-2.15,0-3.25-.52-4-2.71-5-13.67-10.23-27.25-15.3-40.89-3.38-9.1,1.75-16.29,11.52-16.3h86.08c9.52,0,14.65,7.24,11.36,16.15-5.13,13.89-10.39,27.72-15.6,41.58C-24.94,309.7-25.31,310.34-25.7,311.13Z" transform="translate(284.49 -251.27)"/></svg>