<svg width="40" height="40" fill="currentColor" xmlns="http://www.w3.org/2000/svg" viewBox="0 0 359.27 364.96"><path d="M-205.89,500.29H-322.06a27.84,27.84,0,0,0-4.09.1c-3.12.47-4.9,2.37-5,5.52a5.28,5.28,0,0,0,4.59,5.85,24.16,24.16,0,0,0,4.82.28c41.77,0,83.53,0,125.3.1a14.64,14.64,0,0,1,7.21,2.12c18.28,11.21,37.93,14.81,59,11.14.48-.08,1-.09,1.69-.15v72.59h-247V277.65h195.05v3.81q0,17.16,0,34.32c0,9,4.73,13.72,13.85,13.74q17,0,33.93,0h4.16v34.8c-7.86-.18-15.6-1.15-23.15-.32-8.16.89-16.15,3.48-24.21,5.29-2.27.51-4.55,1.3-6.83,1.31q-69.74.11-139.46.06c-6.19,0-8.93,1.81-9,5.92s2.62,6,8.78,6h123.66c-3.93,4.35-7.83,8-10.92,12.25a144.57,144.57,0,0,0-9.9,16.13c-1.19,2.19-2.3,2.95-4.75,2.95q-49-.13-98.07-.06a22,22,0,0,0-3.35.05c-3.2.47-5.25,2.24-5.42,5.6s1.73,5.35,4.85,6.09a17.94,17.94,0,0,0,4.09.18h96.35c-.48,10.47-.94,20.59-1.43,31.28h-94.75a33.13,33.13,0,0,0-3.73.06c-3.1.34-5,2.09-5.36,5.21-.33,3.31,1.32,5.51,4.54,6.28a19.3,19.3,0,0,0,4.44.31q47.35,0,94.71-.05c2.79,0,4.14.68,5,3.47C-219.14,482.53-213.51,491.42-205.89,500.29ZM-252,543.45h-70a22.81,22.81,0,0,0-4.46.19,5.32,5.32,0,0,0-4.63,5.82,5.3,5.3,0,0,0,4.6,5.48,20.59,20.59,0,0,0,4.09.18h140.84a31.16,31.16,0,0,0,3.35-.09,5.82,5.82,0,0,0,5.28-5.73,5.78,5.78,0,0,0-5.25-5.74,37.29,37.29,0,0,0-4.1-.11Zm-21-204.07H-222c4.88,0,7.49-2,7.58-5.71s-2.57-6.13-7.28-6.13q-51.06-.06-102.12,0c-4.81,0-7.4,2.26-7.37,6s2.55,5.81,7.44,5.82Z" transform="translate(375.56 -232.89)"/><path d="M-336.92,265.44V232.89h195.2v3.82q0,17.16,0,34.31c0,9,4.75,13.73,13.85,13.74q17,0,33.93,0h4.17V385c-1.12-.82-1.83-1.43-2.61-1.92-7-4.39-13.95-9-21.17-13-2.16-1.22-3-2.2-3-4.67.11-14.92-.06-29.84.11-44.75a17.44,17.44,0,0,0-5.54-13.6q-18.4-18-36.39-36.38a16.89,16.89,0,0,0-12.95-5.29q-80.35.12-160.71.05Z" transform="translate(375.56 -232.89)"/><path d="M-87.49,484.48q10.32,11,20.36,21.77c6.28-3.79,7.65-3.6,12.7,1.3q17.24,16.77,34.5,33.52c4.82,4.68,4.84,7.43.15,12.26-3.73,3.83-7.43,7.69-11.19,11.49-3.94,4-7.21,4-11.22.16Q-60,547.75-77.77,530.43c-4.37-4.26-4.61-6.2-2.1-10.32l-20.06-21.73c-32.62,26.45-74.83,19.14-97.72-6.74-23.48-26.55-23.61-66.39-.28-92.63A69.92,69.92,0,0,1-106,387.48C-78.18,406.33-63.74,448.31-87.49,484.48Zm-4.61-39.22a53.47,53.47,0,0,0-53.11-53.6A53.69,53.69,0,0,0-199,445.05a53.52,53.52,0,0,0,53.57,53.52A53.33,53.33,0,0,0-92.1,445.26Z" transform="translate(375.56 -232.89)"/><path d="M-100.45,513.62l6,6.9c.4.46,1,.93,1.08,1.45,1.07,10.3,6.42,20.12,2.9,31.4H-116.5c0-8.48.39-16.66-.14-24.79-.34-5.25,1-8.2,6.24-9.76C-107.26,517.88-104.47,515.78-100.45,513.62Z" transform="translate(375.56 -232.89)"/><path d="M-129.46,233.52l39.24,39h-39.24Z" transform="translate(375.56 -232.89)"/><path d="M-168.44,317.35V279.23l38.08,38.12Z" transform="translate(375.56 -232.89)"/></svg>