<svg width="106" height="25" viewBox="0 0 106 25" fill="currentColor" xmlns="http://www.w3.org/2000/svg">
<path d="M0 24.48V23.872L2.4 21.888V4.992L0 3.008V2.4H6.624V21.888L9.024 23.872V24.48H0ZM14.976 24.48L8.352 14.176L12.48 13.152L19.456 24.064L16.608 20.608L20.608 23.872V24.48H14.976ZM4.416 14.944V13.28H8.832C10.2613 13.28 11.4133 12.8533 12.288 12C13.1627 11.1467 13.6 10.016 13.6 8.608C13.6 7.24267 13.1627 6.15467 12.288 5.344C11.4347 4.53333 10.2827 4.128 8.832 4.128H4.16V2.4H9.92C12.544 2.4 14.5707 2.92267 16 3.968C17.4507 4.992 18.176 6.44267 18.176 8.32C18.176 10.2613 17.4507 11.7867 16 12.896C14.5493 13.984 12.544 14.528 9.984 14.528H9.792V14.944H4.416Z" fill="currentColor"/>
<path d="M29.4875 24.896C27.8022 24.896 26.3302 24.5653 25.0715 23.904C23.8128 23.2213 22.8208 22.2827 22.0955 21.088C21.3915 19.872 21.0395 18.4747 21.0395 16.896C21.0395 15.232 21.4128 13.7707 22.1595 12.512C22.9062 11.2533 23.9302 10.2613 25.2315 9.536C26.5542 8.81067 28.0582 8.448 29.7435 8.448C31.4288 8.448 32.9008 8.78933 34.1595 9.472C35.4395 10.1333 36.4315 11.072 37.1355 12.288C37.8395 13.4827 38.1915 14.88 38.1915 16.48C38.1915 18.1227 37.8182 19.584 37.0715 20.864C36.3248 22.1227 35.3008 23.1147 33.9995 23.84C32.6982 24.544 31.1942 24.896 29.4875 24.896ZM29.8715 23.008C30.7035 23.008 31.4288 22.7733 32.0475 22.304C32.6875 21.8133 33.1782 21.1413 33.5195 20.288C33.8822 19.4347 34.0635 18.4427 34.0635 17.312C34.0635 15.8613 33.8715 14.624 33.4875 13.6C33.1035 12.576 32.5595 11.7867 31.8555 11.232C31.1515 10.656 30.3195 10.368 29.3595 10.368C28.5275 10.368 27.7915 10.6133 27.1515 11.104C26.5328 11.5733 26.0422 12.2347 25.6795 13.088C25.3382 13.9413 25.1675 14.9333 25.1675 16.064C25.1675 17.4933 25.3595 18.7307 25.7435 19.776C26.1275 20.8 26.6715 21.6 27.3755 22.176C28.0795 22.7307 28.9115 23.008 29.8715 23.008Z" fill="currentColor"/>
<path d="M48.9905 24.896C47.0705 24.896 45.5132 24.448 44.3185 23.552V20.576C44.8732 21.408 45.5345 22.0373 46.3025 22.464C47.0705 22.8693 47.9558 23.072 48.9585 23.072C49.9185 23.072 50.7398 22.816 51.4225 22.304C52.1265 21.792 52.6705 21.0773 53.0545 20.16C53.4598 19.2427 53.6625 18.144 53.6625 16.864C53.6625 15.072 53.2998 13.6853 52.5745 12.704C51.8492 11.7013 50.8252 11.2 49.5025 11.2C48.6918 11.2 47.9452 11.3707 47.2625 11.712C46.5798 12.032 45.9398 12.5333 45.3425 13.216V11.232H45.7585C46.3985 10.3787 47.1985 9.70667 48.1585 9.216C49.1185 8.704 50.0998 8.448 51.1025 8.448C52.4465 8.448 53.6092 8.768 54.5905 9.408C55.5932 10.0267 56.3718 10.912 56.9265 12.064C57.4812 13.1947 57.7585 14.528 57.7585 16.064C57.7585 17.792 57.3852 19.328 56.6385 20.672C55.8918 21.9947 54.8572 23.0293 53.5345 23.776C52.2118 24.5227 50.6972 24.896 48.9905 24.896ZM41.8865 24.896V3.424L43.2625 5.664L39.6145 2.592V2.016L44.9585 0H45.8225V22.848L42.4305 24.896H41.8865Z" fill="currentColor"/>
<path d="M68.506 24.896C66.97 24.896 65.6047 24.576 64.41 23.936C63.2153 23.2747 62.2767 22.368 61.594 21.216C60.9327 20.064 60.602 18.752 60.602 17.28C60.602 15.5307 60.9647 14.0053 61.69 12.704C62.4153 11.3813 63.4073 10.3467 64.666 9.6C65.9247 8.832 67.3753 8.448 69.018 8.448C70.3407 8.448 71.4927 8.77867 72.474 9.44C73.4553 10.08 74.2127 10.9973 74.746 12.192C75.3007 13.3867 75.578 14.7947 75.578 16.416H63.354V15.2L71.354 14.272C71.354 13.0347 71.0767 12.0853 70.522 11.424C69.9887 10.7413 69.2633 10.4 68.346 10.4C67.6207 10.4 66.9807 10.6453 66.426 11.136C65.8713 11.6267 65.4447 12.32 65.146 13.216C64.8473 14.0907 64.698 15.104 64.698 16.256C64.698 18.1547 65.1567 19.6373 66.074 20.704C66.9913 21.7707 68.2607 22.304 69.882 22.304C71.7167 22.304 73.21 21.7387 74.362 20.608L75.194 21.376C74.554 22.4853 73.6367 23.3493 72.442 23.968C71.2687 24.5867 69.9567 24.896 68.506 24.896Z" fill="currentColor"/>
<path d="M77.628 24.48V24L80.348 21.6L79.836 22.496V12.16L81.212 14.336L77.532 11.2V10.624L82.876 8.704H83.708L83.516 11.936H83.74V22.528L83.26 21.632L86.908 24V24.48H77.628ZM83.42 14.016L83.26 11.936H83.676C84.2733 10.848 85.0413 9.99467 85.98 9.376C86.9187 8.75733 87.8893 8.448 88.892 8.448C89.7027 8.448 90.4493 8.58667 91.132 8.864L89.148 14.176H88.476L85.34 10.912L88.412 11.68C87.3027 11.68 86.3107 11.8933 85.436 12.32C84.5613 12.7253 83.8893 13.2907 83.42 14.016Z" fill="currentColor"/>
<path d="M99.9925 24.896C98.8832 24.896 97.9125 24.6613 97.0805 24.192C96.2698 23.7227 95.6298 23.072 95.1605 22.24C94.7125 21.408 94.4885 20.416 94.4885 19.264V9.568L95.8645 11.616H91.7685V11.008L97.5605 4.544H98.4245V18.24C98.4245 19.5627 98.6592 20.5547 99.1285 21.216C99.5978 21.856 100.323 22.176 101.304 22.176C102.627 22.176 103.747 21.6427 104.664 20.576L105.592 21.152C105.144 22.304 104.419 23.2213 103.417 23.904C102.414 24.5653 101.273 24.896 99.9925 24.896ZM104.057 11.904L97.4325 10.912V9.344L103.961 8.352H104.44V11.616L104.057 11.904Z" fill="currentColor"/>
</svg>
