<svg width="40" height="40" fill="currentColor" xmlns="http://www.w3.org/2000/svg" viewBox="0 0 383.28 383.35"><path d="M-162.15,535.83h-20.21a9.94,9.94,0,0,0-2-.7c-18.49-2-35.09-8.89-50.29-19.49a12.52,12.52,0,0,0-6.75-2.2q-82.89-.18-165.78-.1c-7.7,0-12.41-4.45-12.41-11.79q0-155.15,0-310.29c0-21.11,17.8-38.71,39.05-38.74q101.6-.11,203.2,0c17.65,0,33.83,11.93,37.45,29.17,2,9.6,1.53,19.8,1.45,29.72,0,5-5.16,8.94-10.27,9.16-3,.12-6,0-9,0h-14v97.9c.64.08,1.11.19,1.59.2a101.33,101.33,0,0,1,38.22,7.52c2.11.86,3.14-.05,4.42-1.34q14.11-14.2,28.3-28.33c7.79-7.77,17-5.58,20.52,4.9,2.4,7.07,4.82,14.14,7,21.27A6.18,6.18,0,0,0-67,327.3c6.66,2,13.18,4.49,19.86,6.46,5,1.47,8.72,4.05,10.75,8.9v6a90.42,90.42,0,0,1-6.16,7.84q-12.94,13.25-26.2,26.19c-2,2-2.33,3.56-1.32,6.14A101.52,101.52,0,0,1-64.4,445c-8.16,44-34.49,72.38-76.72,86.19C-147.9,533.43-155.13,534.32-162.15,535.83ZM-194.42,220.6h-156c-7.84,0-12.33-4.46-12.36-12.21,0-5.37.12-10.73,0-16.09-.34-11.9-11.06-19.84-22.2-16.55-7.59,2.25-12.22,9-12.22,18.11q0,146.73,0,293.46c0,1.08.12,2.16.18,3.26h136.91a4.76,4.76,0,0,0-.3-1,107.87,107.87,0,0,1-19.37-53.44,3.43,3.43,0,0,0-2.46-2.2c-4.1-.24-8.23-.07-12.35-.13-4.55-.06-8.26-1.81-10.57-5.88-4.35-7.65.95-16.44,10.26-16.83,5.21-.22,10.43,0,15.91,0a112.37,112.37,0,0,1,17.36-44.45c-11.43,0-22.12,0-32.82,0-7.24,0-12.18-4.65-12.14-11.31s4.95-11.1,12.3-11.11c16.47,0,32.94.07,49.4-.1a10.85,10.85,0,0,0,6-2.07c8.72-6.55,17.93-12.19,28.19-15.94,5.35-1.95,10.8-3.59,16.3-5.4Zm72.68,173.1c7.55,13.25,10.35,22.56,10.19,33.69-.51,36.89-32.24,64.15-68.76,59.07-32.73-4.55-56-36.25-50.5-68.8,7.07-41.83,53.78-63.51,90.13-41.88,1.09.65,3.5,1,4,.37,1.63-2,5.41-2.69,4-6.7-2.33-6.43-4.19-13-6.59-19.43a7.3,7.3,0,0,0-3.85-3.84,82,82,0,0,0-43.39-3.66c-43,7.71-78.56,48.55-69.61,99.55,8.61,49,55.1,79.49,103.7,69.06,49.48-10.62,79.52-65,62-112.44a7.52,7.52,0,0,0-4-3.7c-4.84-1.94-9.86-3.45-14.81-5.1C-116.51,387.48-116.51,387.49-121.74,393.7ZM-339.47,197.94h178.54c1.62-15-5.53-23-20.26-23H-343C-341.78,182.68-340.65,190.11-339.47,197.94Zm200.72,212.32c-8,8.08-16,16.14-24,24.13-5.19,5.17-11.91,5.48-16.61.89s-4.55-11.49.76-16.9c3.23-3.29,6.51-6.53,9.78-9.79l14.31-14.26c-14.85-9-35.88-4.08-47,10.62s-9.33,36.28,4.08,49.11c13.88,13.27,35.37,14.11,49.73,1.94C-134.14,444.48-129.86,423.31-138.75,410.26ZM-95,324.14c-7.11,7.17-13.87,13.93-20.52,20.8a3.54,3.54,0,0,0-.55,2.92c1.65,5.34,3.4,10.66,5.32,15.91a5,5,0,0,0,2.62,2.68c5.12,1.9,10.32,3.59,15.54,5.21.93.29,2.47.33,3-.23,6.92-6.76,13.72-13.66,20.9-20.87-4.66-1.55-8.84-3-13.05-4.32a12.5,12.5,0,0,1-8.81-8.82C-91.76,333.15-93.33,329-95,324.14Z" transform="translate(419.66 -152.47)"/><path d="M-261.87,299.22q-16.25,0-32.51,0c-7.27,0-12.22-4.57-12.23-11.2s4.89-11.22,12.16-11.22q32.7,0,65.4,0c7.31,0,12.22,4.51,12.24,11.16s-4.9,11.24-12.17,11.26Q-245.42,299.24-261.87,299.22Z" transform="translate(419.66 -152.47)"/><path d="M-351.33,350.69c4.5-4.6,8.71-9,13-13.29,5.32-5.31,12.22-5.59,16.91-.78s4.24,11.5-.87,16.66q-10.14,10.23-20.36,20.37c-5.71,5.66-12.07,5.68-17.73.1q-4.93-4.85-9.78-9.79c-5-5.11-5.2-12.09-.54-16.65s11.38-4.22,16.4.57Z" transform="translate(419.66 -152.47)"/><path d="M-351.76,283c4.91-5,9.13-9.43,13.43-13.73,5.32-5.31,12.21-5.6,16.91-.82s4.28,11.51-.82,16.67q-10.26,10.37-20.63,20.62c-5.52,5.43-11.89,5.36-17.46-.11-3.28-3.24-6.55-6.49-9.78-9.79-5-5.11-5.23-12.08-.59-16.65s11.39-4.28,16.39.53A34.42,34.42,0,0,1-351.76,283Z" transform="translate(419.66 -152.47)"/><path d="M-351.34,417.77c4.53-4.61,8.76-9,13.08-13.31,5.2-5.19,11.87-5.54,16.6-1s4.63,11.54-.66,16.9q-10.12,10.25-20.37,20.37c-5.76,5.69-12,5.66-17.7,0-3.29-3.24-6.57-6.48-9.78-9.79-4.91-5.07-5.15-11.74-.67-16.36s11.42-4.54,16.63.46Z" transform="translate(419.66 -152.47)"/></svg>