<svg width="135" height="24" viewBox="0 0 135 24" fill="none" xmlns="http://www.w3.org/2000/svg">
<path d="M19.744 0C19.5946 2.02667 19.52 3.84 19.52 5.44C19.52 6.44267 19.552 7.25333 19.616 7.872H18.88C18.368 5.248 17.664 3.40267 16.768 2.336C15.8933 1.26933 14.688 0.735998 13.152 0.735998H12.416V19.008C12.416 19.904 12.5013 20.5547 12.672 20.96C12.864 21.3653 13.184 21.6427 13.632 21.792C14.1013 21.92 14.8373 21.9947 15.84 22.016V22.656C13.152 22.592 11.1253 22.56 9.75995 22.56C8.41595 22.56 6.46395 22.592 3.90395 22.656V22.016C4.90662 21.9947 5.63195 21.92 6.07995 21.792C6.54928 21.6427 6.86928 21.3653 7.03995 20.96C7.23195 20.5547 7.32795 19.904 7.32795 19.008V0.735998H6.62395C5.59995 0.735998 4.72528 0.959998 3.99995 1.408C3.29595 1.856 2.68795 2.60267 2.17595 3.648C1.66395 4.672 1.22662 6.08 0.863951 7.872H0.127951C0.191951 7.25333 0.223951 6.44267 0.223951 5.44C0.223951 3.84 0.149285 2.02667 -4.88162e-05 0C1.94128 0.0639992 5.23728 0.0959988 9.88795 0.0959988C14.5386 0.0959988 17.824 0.0639992 19.744 0ZM44.479 3.84C43.7536 3.88267 43.231 3.968 42.911 4.096C42.591 4.224 42.367 4.46933 42.239 4.832C42.1323 5.19467 42.079 5.78133 42.079 6.592V19.264C42.079 20.0747 42.1323 20.6613 42.239 21.024C42.367 21.3867 42.591 21.632 42.911 21.76C43.2523 21.888 43.775 21.9733 44.479 22.016V22.656C43.4976 22.592 41.9403 22.56 39.807 22.56C37.6523 22.56 35.9776 22.592 34.783 22.656V22.016C35.5083 21.9733 36.031 21.888 36.351 21.76C36.671 21.632 36.8843 21.3867 36.991 21.024C37.119 20.6613 37.183 20.0747 37.183 19.264V13.056H28.959V19.264C28.959 20.0747 29.0123 20.6613 29.119 21.024C29.247 21.3867 29.471 21.632 29.791 21.76C30.1323 21.888 30.655 21.9733 31.359 22.016V22.656C30.1856 22.592 28.511 22.56 26.335 22.56C24.2443 22.56 22.687 22.592 21.663 22.656V22.016C22.3883 21.9733 22.911 21.888 23.231 21.76C23.551 21.632 23.7643 21.3867 23.871 21.024C23.999 20.6613 24.063 20.0747 24.063 19.264V6.592C24.063 5.78133 23.999 5.19467 23.871 4.832C23.7643 4.46933 23.5403 4.224 23.199 4.096C22.879 3.968 22.367 3.88267 21.663 3.84V3.2C22.687 3.264 24.2443 3.296 26.335 3.296C28.511 3.296 30.1856 3.264 31.359 3.2V3.84C30.6336 3.88267 30.111 3.968 29.791 4.096C29.471 4.224 29.247 4.46933 29.119 4.832C29.0123 5.19467 28.959 5.78133 28.959 6.592V12.416H37.183V6.592C37.183 5.78133 37.119 5.19467 36.991 4.832C36.8843 4.46933 36.6603 4.224 36.319 4.096C35.999 3.968 35.487 3.88267 34.783 3.84V3.2C35.9776 3.264 37.6523 3.296 39.807 3.296C41.9403 3.296 43.4976 3.264 44.479 3.2V3.84ZM57.4537 2.752C59.6084 2.752 61.4964 3.14667 63.1177 3.936C64.739 4.704 65.9977 5.84533 66.8937 7.36C67.7897 8.85333 68.2377 10.6453 68.2377 12.736C68.2377 14.784 67.779 16.5973 66.8617 18.176C65.9444 19.7333 64.6644 20.9493 63.0217 21.824C61.379 22.6773 59.5124 23.104 57.4217 23.104C55.267 23.104 53.379 22.72 51.7577 21.952C50.1364 21.1627 48.8777 20.0213 47.9817 18.528C47.0857 17.0133 46.6377 15.2107 46.6377 13.12C46.6377 11.072 47.0964 9.26933 48.0137 7.712C48.931 6.13333 50.211 4.91733 51.8537 4.064C53.4964 3.18933 55.363 2.752 57.4537 2.752ZM57.3257 3.328C56.2164 3.328 55.235 3.744 54.3817 4.576C53.5497 5.38667 52.899 6.528 52.4297 8C51.9817 9.45067 51.7577 11.1147 51.7577 12.992C51.7577 14.8907 52.0137 16.5653 52.5257 18.016C53.0377 19.4667 53.731 20.5867 54.6057 21.376C55.5017 22.144 56.483 22.528 57.5497 22.528C58.659 22.528 59.6297 22.1227 60.4617 21.312C61.315 20.48 61.9657 19.3387 62.4137 17.888C62.883 16.416 63.1177 14.7413 63.1177 12.864C63.1177 10.9653 62.8617 9.29067 62.3497 7.84C61.8377 6.38933 61.1337 5.28 60.2377 4.512C59.363 3.72267 58.3924 3.328 57.3257 3.328ZM96.5257 3.84C95.7577 3.88267 95.1924 3.968 94.8297 4.096C94.4884 4.224 94.2537 4.46933 94.1257 4.832C93.9977 5.19467 93.9337 5.78133 93.9337 6.592V19.264C93.9337 20.0747 93.9977 20.6613 94.1257 21.024C94.2537 21.3867 94.4884 21.632 94.8297 21.76C95.1924 21.888 95.7577 21.9733 96.5257 22.016V22.656C95.3737 22.592 93.763 22.56 91.6937 22.56C89.219 22.56 87.4057 22.592 86.2537 22.656V22.016C87.0217 21.9733 87.5764 21.888 87.9177 21.76C88.2804 21.632 88.5257 21.3867 88.6537 21.024C88.7817 20.6613 88.8457 20.0747 88.8457 19.264V5.216L81.5177 22.816H81.0057L73.5817 5.248V18.368C73.5817 19.3067 73.667 20.0213 73.8377 20.512C74.0084 20.9813 74.3177 21.3227 74.7657 21.536C75.235 21.7493 75.939 21.9093 76.8777 22.016V22.656C75.9604 22.592 74.7444 22.56 73.2297 22.56C72.0564 22.56 71.1284 22.592 70.4457 22.656V22.016C71.1497 21.9093 71.6617 21.7493 71.9817 21.536C72.323 21.3227 72.547 20.9813 72.6537 20.512C72.7817 20.0427 72.8457 19.328 72.8457 18.368V6.592C72.8457 5.78133 72.7817 5.19467 72.6537 4.832C72.5257 4.46933 72.2804 4.224 71.9177 4.096C71.5764 3.968 71.0217 3.88267 70.2537 3.84V3.2C71.363 3.264 73.059 3.296 75.3417 3.296C76.451 3.296 77.4004 3.264 78.1897 3.2L83.5017 15.968L88.8457 3.296H91.6937C93.763 3.296 95.3737 3.264 96.5257 3.2V3.84ZM115.816 19.968C116.435 21.2907 117.107 21.9733 117.832 22.016V22.656C116.808 22.592 115.411 22.56 113.64 22.56C111.358 22.56 109.672 22.592 108.584 22.656V22.016C109.288 21.9733 109.811 21.8667 110.152 21.696C110.494 21.504 110.664 21.1947 110.664 20.768C110.664 20.384 110.526 19.904 110.248 19.328L108.648 15.68H101.928L101.544 16.544C100.947 17.952 100.648 19.0507 100.648 19.84C100.648 20.5653 100.883 21.0987 101.352 21.44C101.822 21.7813 102.515 21.9733 103.432 22.016V22.656C102.216 22.592 100.99 22.56 99.7525 22.56C98.6005 22.56 97.7365 22.592 97.1605 22.656V22.016C97.6725 21.9093 98.1418 21.5893 98.5685 21.056C99.0165 20.5013 99.4858 19.68 99.9765 18.592L106.728 3.136C106.899 3.15733 107.144 3.168 107.464 3.168C107.806 3.168 108.051 3.15733 108.2 3.136L115.816 19.968ZM108.36 15.04L105.288 8.032L102.216 15.04H108.36ZM126.823 2.752C127.804 2.752 128.636 2.85867 129.319 3.072C130.023 3.28533 130.684 3.57333 131.303 3.936C131.538 4.064 131.74 4.17067 131.911 4.256C132.103 4.34133 132.263 4.384 132.391 4.384C132.583 4.384 132.732 4.27733 132.839 4.064C132.946 3.82933 133.031 3.46667 133.095 2.976H133.831C133.724 4.256 133.671 6.47467 133.671 9.632H132.935C132.7 7.712 132.082 6.208 131.079 5.12C130.076 4.01067 128.764 3.456 127.143 3.456C126.076 3.456 125.212 3.69067 124.551 4.16C123.911 4.62933 123.591 5.23733 123.591 5.984C123.591 6.56 123.762 7.09333 124.103 7.584C124.466 8.05333 124.935 8.49067 125.511 8.896C126.087 9.30133 126.93 9.83467 128.039 10.496L128.743 10.912C130.023 11.6373 131.068 12.2987 131.879 12.896C132.69 13.472 133.362 14.1653 133.895 14.976C134.428 15.7653 134.695 16.6613 134.695 17.664C134.695 19.4133 133.97 20.7573 132.519 21.696C131.068 22.6347 129.159 23.104 126.791 23.104C125.767 23.104 124.882 22.9867 124.135 22.752C123.388 22.5387 122.631 22.24 121.863 21.856C121.33 21.6 120.956 21.472 120.743 21.472C120.551 21.472 120.402 21.5893 120.295 21.824C120.188 22.0373 120.103 22.3893 120.039 22.88H119.303C119.388 21.6853 119.431 19.0827 119.431 15.072H120.167C120.316 17.3333 120.924 19.1147 121.991 20.416C123.079 21.7173 124.604 22.368 126.567 22.368C127.527 22.368 128.359 22.1227 129.063 21.632C129.767 21.1413 130.119 20.416 130.119 19.456C130.119 18.6027 129.788 17.8667 129.127 17.248C128.466 16.6293 127.335 15.8507 125.735 14.912C123.708 13.76 122.151 12.6613 121.063 11.616C119.996 10.5707 119.463 9.344 119.463 7.936C119.463 6.272 120.146 4.992 121.511 4.096C122.898 3.2 124.668 2.752 126.823 2.752Z" fill="black"/>
</svg>
