<svg width="40" height="40" fill="currentColor" xmlns="http://www.w3.org/2000/svg" viewBox="0 0 284.19 290.21"><path d="M-299.81,417.92c0,12.24.23,24.47-2.76,36.51-6.11,24.59-19.43,44.2-40.14,58.73-6.94,4.86-14.15,9.35-21.3,13.91-.83.53-2.46.91-3.11.47-10.56-7.15-21.78-13.59-31.38-21.9-22.49-19.47-33.25-44.8-33.64-74.49-.16-11.82,0-23.65-.08-35.47,0-2.2.72-3.15,2.74-3.95,20.33-8.05,40.61-16.25,61-24.27a7.68,7.68,0,0,1,5.14,0c20.23,8,40.38,16.15,60.6,24.13,2.27.9,3.09,2,3,4.42C-299.91,403.31-299.81,410.62-299.81,417.92Zm-72.85,56.81c.78-.71,1.35-1.19,1.87-1.71q24.06-24,48.1-48.1A11,11,0,0,0-321,423a6.35,6.35,0,0,0-.13-7.53,6.09,6.09,0,0,0-7.46-2.19,11.29,11.29,0,0,0-3.82,2.84q-18.85,18.76-37.61,37.63a19.42,19.42,0,0,0-2.1,3.34c-5.73-5.83-10.57-10.86-15.54-15.76a6.53,6.53,0,0,0-9.26-.28c-2.72,2.62-2.8,6.52.09,9.46C-388.92,458.53-380.91,466.47-372.66,474.73Z" transform="translate(511.41 -367.01)"/><path d="M-402.25,601.61c-5.41-.58-10.5-1.1-15.58-1.68-15.9-1.82-31.79-3.73-47.69-5.47a33,33,0,0,0-18.59,3.79c-17.43-15.88-27.19-35.14-27.25-58.82q-.12-47.1,0-94.21c0-8.31,4.91-14.46,12.31-15.85a15,15,0,0,1,16.57,8.89,20.19,20.19,0,0,1,1.36,7.21c.11,17.21.08,34.42,0,51.63a9.19,9.19,0,0,1-1.19,4.19c-4.37,7.86-3.42,16.84,2.8,23.2,8.35,8.54,16.81,17,25.2,25.45,1.67,1.68,3.48,2.95,5.5.82s.65-3.91-1-5.56q-12.42-12.45-24.8-24.93a12.18,12.18,0,0,1-3.11-13.33c1.76-5.08,5.58-7.8,10.86-8.29a11.67,11.67,0,0,1,9.67,3.53c13.2,13.26,26.53,26.4,39.51,39.88,10,10.41,14.85,23.23,15.36,37.61C-402,586.84-402.25,594-402.25,601.61Z" transform="translate(511.41 -367.01)"/><path d="M-336.33,601.42c.48-13.89-1.51-27.61,3.78-40.76a58.89,58.89,0,0,1,12.81-19.9Q-301,521.85-282.24,503c5.57-5.58,13.24-5.86,18.4-.79s5,12.84-.47,18.42c-7.91,8.06-15.91,16-23.87,24-.53.54-1.43,1-1.51,1.62-.2,1.52-.61,3.47.11,4.56,1.08,1.67,3,1.3,4.46-.11,2.54-2.48,5-5,7.53-7.52,5.84-5.87,11.7-11.73,17.52-17.62,7.35-7.44,8.42-15.72,3.36-24.92a6.54,6.54,0,0,1-.76-3c0-17.74-.09-35.49,0-53.23,0-7.84,5.9-14.36,13.21-15.12a15.07,15.07,0,0,1,16.65,11.58,20.75,20.75,0,0,1,.35,4.8c0,30.87-.05,61.73,0,92.6.07,21.62-7.63,39.93-22.53,55.51-3.05,3.18-5.32,4.71-9.85,2.53-6.65-3.19-13.87-1.84-20.94-1-17.59,2.1-35.19,4.09-52.8,6.11A29,29,0,0,1-336.33,601.42Z" transform="translate(511.41 -367.01)"/><path d="M-302.5,657.18c-10.75,0-21.5.14-32.24,0-14.55-.24-25.4-11.65-24.7-25.69.63-12.75,10.5-22,24.32-23.46,18.36-1.9,36.67-4.3,55-6.14,5.69-.57,11.74-1.05,17.19.25,12.76,3,20.18,15,19.23,29.07-1.07,15.68-11.83,25.88-27.56,26C-281.64,657.24-292.07,657.18-302.5,657.18Z" transform="translate(511.41 -367.01)"/><path d="M-436.13,657.13c-11.07,0-22.15.26-33.21-.07-13.68-.42-23.82-10.21-25.5-24-1.8-14.71,5.85-27.76,19.17-31,5.34-1.3,11.29-.84,16.87-.28,18.47,1.86,36.89,4.24,55.35,6.2,13.55,1.44,22.36,9.36,24.12,22.21S-388,656-401,657c-.75,0-1.51.14-2.26.14h-32.89Z" transform="translate(511.41 -367.01)"/></svg>