<svg width="0" height="0" class="hidden">
  <symbol xmlns="http://www.w3.org/2000/svg" fill="currentColor" viewBox="0 0 24 24" id="arrow-button">
    <path id='j' d="M5.63589 19.7784L4.22169 18.3644L15.657 6.92908L10.0712 6.92908V4.92908L19.0712 4.92908L19.0712 13.9291H17.0712L17.0712 8.34326L5.63589 19.7784Z"></path>
  </symbol>
  <symbol xmlns="http://www.w3.org/2000/svg" fill="currentColor" viewBox="0 0 24 24" id="auction-fill">
    <path d="M9.995 20.003v2h12v-2h-12ZM9.41.689 1.631 8.467l1.414 1.414 1.061-.353 2.475 2.475L.924 17.66l1.414 1.414 5.657-5.657 2.404 2.404-.283 1.132 1.415 1.414 7.778-7.778-1.414-1.415-1.132.283-6.293-6.293.353-1.06L9.41.688Z"></path>
  </symbol>
  <symbol fill="currentColor" viewBox="0 0 383.58 343.97" id="experience-one">
    <path d="M-340.56,386.7c-.62,2.39-1.16,4.81-1.86,7.18-4.39,14.8-13.49,25.67-27.42,32.36-5.73,2.74-11.64,5.08-17.35,7.87a6.4,6.4,0,0,0-2.95,3.62c-1.45,5.13-2.53,10.36-3.89,16.15,19-3.12,34.43,7.11,51.6,12.56-4.32,10.73-7.77,21.33-12.72,31.17-11.59,23-38.69,32.74-63.69,23.5-3.86-1.42-7.64-3.06-11.55-4.31a5.07,5.07,0,0,0-4,.43c-6.89,5.33-13.62,10.87-20.58,16.47a15.78,15.78,0,0,0,1.55,1.34,50.21,50.21,0,0,1,18.47,23.46c3.28,8.59,6.47,17.22,9.91,26.39-15.69,4.66-29.86,13.92-47,12.35-20.09-1.84-34.41-12-43-30.24a36.84,36.84,0,0,1-2.82-7.3c-.85-3.68-2.64-4.89-6.51-4.6a158.61,158.61,0,0,1-17.58,0c-2.43-.09-3.51.67-4.25,3-3.14,9.72-7.5,18.82-15.32,25.72-14.73,13-31.66,16.89-50.44,11-9.24-2.88-18.22-6.61-27.65-10.08,7.77-18.62,10.75-39.65,30.21-50.79-7.31-5.9-14.2-11.59-21.27-17-.86-.66-2.79-.36-4.05,0-7,2.2-13.78,5.32-20.92,6.74a49.71,49.71,0,0,1-54.94-28.15c-4.26-9.36-7.61-19.15-11.54-29.15,17.05-5.3,32.37-15.65,51.41-12.51-1.38-6.19-2.57-12-4-17.73-.23-.91-1.69-1.68-2.74-2.17-6-2.78-12.1-5.3-18-8.18A50.32,50.32,0,0,1-721,363c3.54-9.54,8.08-18.71,12.41-28.61,14.35,7.35,30.29,11,41.79,23.17,2-4.29,4-8.26,5.68-12.4.41-1.06-.19-2.84-.87-3.94-4.78-7.73-8.38-15.84-9-25.05-1.31-19.21,5.58-34.81,21.21-46,8.38-6,17.56-10.85,26.86-16.52,6.89,13.8,17.58,25.21,20.32,40.78a50.94,50.94,0,0,1-22.55,51.75,112.56,112.56,0,0,1-10.9,6.53c-3.82,1.89-6,4.83-7.71,8.6-30.16,66.4,6.63,146.24,76.8,166.51,64.49,18.63,130.68-16.5,150.9-80.37,9.63-30.44,7.16-60.26-6.37-89.14a10.6,10.6,0,0,0-3.66-4c-6.11-4.08-12.78-7.44-18.44-12a50,50,0,0,1-13-61.28c4.73-9.28,10.47-18,16-27.52,10.07,6.36,20.33,11.71,29.28,18.73,19.93,15.61,24.65,43,11.69,65-2.8,4.76-4,8.63-.55,13.38,1.41,1.95,2.07,4.46,3.22,7.07,11.37-12.36,27.35-15.76,41.78-23.37,5.43,13.2,12.38,25.27,15.53,38.92Zm-340.08,21c10.28-17,1.66-39.21-16.49-42.87C-707.18,381.56-699.23,401.67-680.64,407.69Zm313-42.94c-18.7,5.3-27.1,27.44-16.24,42.81C-364.95,401.06-357.36,381-367.67,364.75ZM-692.48,479.61c5.36,19.42,26.07,28.58,41.88,18.68C-654,481.59-673.19,469.72-692.48,479.61Zm320.34,0c-20.52-10.52-39.64,3.71-41.77,19C-395.82,507.31-377.66,499.15-372.14,479.63ZM-642.06,329.71c18.06-8,23.45-29.89,11-44.58C-650.39,293.94-653.3,316.27-642.06,329.71Zm73.77,222.44c-18.22-8.82-36.88-.23-41.86,19.1C-593,580.42-573.77,571.75-568.29,552.15Zm113.87,19.19c-5.18-21.34-28-27.87-41.87-18.83C-490.32,572-472.88,579.91-454.42,571.34Zm31.85-241.51c12.1-16.08,7-36.28-11.16-44.75C-445.68,301.28-441,320.45-422.57,329.83Z" transform="translate(724.14 -253.51)"></path>
    <path d="M-626.53,402.17l59.84-27.44c10.64-4.88,21.26-9.81,32-14.58a6.11,6.11,0,0,1,4.44-.21q45.06,20.46,90,41.17a20.72,20.72,0,0,1,2,1.24l-22.33,10.34c8.89,9.94,14.49,21.19,15.86,34.88l-22.3,1.94c-1.2-7.23-3.54-13.78-8.92-19.79-.09,1.91-.2,3.09-.2,4.27,0,11.73-.05,23.46,0,35.2a4.08,4.08,0,0,1-2.56,4.33c-17.16,8.57-34.25,17.29-51.42,25.82a5.57,5.57,0,0,1-4.35,0c-17.18-8.54-34.26-17.27-51.44-25.82-2.17-1.09-2.65-2.44-2.64-4.67.09-15.35,0-30.7.11-46.06,0-2.38-.79-3.51-2.89-4.45-10.45-4.68-20.85-9.51-31.26-14.29C-623.67,403.56-624.76,403-626.53,402.17Zm127.92,28.12c-1.41.56-2.54.95-3.63,1.45-9,4.14-18,8.41-27.17,12.35a8.19,8.19,0,0,1-5.85,0c-8.34-3.58-16.54-7.51-24.79-11.3-1.86-.85-3.76-1.65-6-2.62,0,9-.06,17.5.09,26a4.22,4.22,0,0,0,1.95,3q14.73,7.67,29.62,15a5.25,5.25,0,0,0,4.06,0q14.91-7.31,29.64-15a4.22,4.22,0,0,0,2-3C-498.54,447.7-498.61,439.22-498.61,430.29Zm-73.45-28.23a14.52,14.52,0,0,0,1.73,1.13c12,5.52,23.92,11.08,36,16.42a6.64,6.64,0,0,0,4.81-.25c10.91-4.84,21.74-9.87,32.59-14.85,1.43-.66,2.82-1.43,4.67-2.37-13.13-6-25.76-11.87-38.44-17.58a4.72,4.72,0,0,0-3.48.15C-546.78,390.39-559.28,396.18-572.06,402.06Z" transform="translate(724.14 -253.51)"></path>
  </symbol>
  <symbol fill="currentColor" xmlns="http://www.w3.org/2000/svg" viewBox="0 0 383.33 381.62" id="experience-two">
    <path d="M-465.21,533.07c1.79-6.78,4.12-13.27,9-18.56,7.22-7.82,16-12.06,26.72-12.1q18.14-.09,36.27,0A35.71,35.71,0,0,1-357.45,538q.12,36.27,0,72.54a35.71,35.71,0,0,1-35.75,35.57c-11.84.06-23.68,0-35.52,0-17.73,0-31.73-11.26-35.75-28.59a19.81,19.81,0,0,0-.74-2.08Zm23.94,41.17c0,11.48,0,23,0,34.43,0,8.58,4.89,13.45,13.48,13.48q16.47,0,32.93,0c8.59,0,13.47-4.9,13.48-13.48q0-34.44,0-68.86c0-8.54-4.95-13.46-13.48-13.48q-16.27-.06-32.56,0c-9,0-13.84,4.82-13.85,13.86Q-441.29,557.2-441.27,574.24Z" transform="translate(465.21 -264.5)"></path>
    <path d="M-465.21,372.88c3.32-6.79,8.86-9.11,16.18-8.52,4.46.36,9,.12,13.46.06,7.32-.1,10.95-2.75,13.27-9.68,1.73-5.18,3.38-10.4,5.1-15.59,2-6.14,6.35-9.6,11.89-9.59s9.83,3.45,11.87,9.62c1.76,5.31,3.44,10.65,5.22,16,2.1,6.27,5.82,9.1,12.44,9.26,5.73.13,11.47,0,17.2.05,6.65.09,10.87,3,12.62,8.48,1.66,5.22-.19,10.14-5.34,13.94-4.61,3.4-9.31,6.69-13.91,10.1-5.09,3.79-6.64,8.38-4.78,14.45,1.71,5.58,3.65,11.09,5.4,16.67,1.87,5.93.34,11.19-4.05,14.35s-9.87,3.07-14.94-.53c-4.77-3.39-9.44-6.94-14.22-10.31-5.24-3.69-9.94-3.62-15.19.13-4.67,3.33-9.27,6.76-13.93,10.08-5.29,3.77-10.62,3.92-15.23.53-4.32-3.18-5.75-8.39-3.85-14.4,1.68-5.34,3.47-10.63,5.15-16,2.1-6.69.64-11.14-5-15.32-3.71-2.73-7.67-5.17-11.13-8.19-3-2.62-5.49-5.87-8.21-8.84ZM-389.63,387l-15.63-11.42-16.2,11.64a88.06,88.06,0,0,1,3.91,8.92,85.81,85.81,0,0,1,2,9.39h19.77C-393.66,399.16-391.58,392.85-389.63,387Z" transform="translate(465.21 -264.5)"></path>
    <path d="M-299.32,316.78c4.64-14.22,9.17-28.16,13.73-42.1,2.15-6.61,6.19-10.06,11.83-10.17s10,3.5,12.2,10.18c4.55,13.94,9.09,27.89,13.72,42.09h44.9c6.52,0,10.87,2.94,12.66,8.45,1.69,5.21-.12,10.19-5.28,14-11.16,8.17-22.32,16.35-33.6,24.36-2.23,1.58-2.67,2.92-1.8,5.5,4.44,13.2,8.72,26.46,12.94,39.73,2.39,7.55-1.17,14.36-8.31,16.14-4.2,1-7.8-.32-11.19-2.81q-16.28-11.94-32.65-23.76c-1.1-.79-2.22-1.54-3.46-2.4-12.19,8.85-24.3,17.6-36.37,26.41-4.3,3.13-8.81,4-13.64,1.46-5.43-2.86-7.56-8.6-5.49-15.08,4.24-13.26,8.5-26.52,12.94-39.72.88-2.61.37-3.95-1.82-5.51q-16.92-12-33.62-24.35c-6.35-4.66-7.71-12-3.38-17.6a12.31,12.31,0,0,1,10.44-4.81C-329.61,316.82-314.65,316.78-299.32,316.78Zm59.55,24.76-.26-.76h-12.9c-10.42,0-13-1.9-16.24-11.73-1.32-4-2.7-8.07-4.05-12.11A81.8,81.8,0,0,0-278,329.24c-3.05,9.43-5.87,11.53-15.64,11.53H-307.2a98.26,98.26,0,0,0,11,8.93c7.21,5.27,8.51,9.25,5.76,17.68-1.44,4.43-2.85,8.86-4.61,14.31l10.88-7.89c9.12-6.6,12.14-6.59,21.34.09l10.69,7.75c-1.82-5.56-3.27-10-4.72-14.49-2.61-8-1.27-12.22,5.46-17.15Z" transform="translate(465.21 -264.5)"></path>
    <path d="M-327.46,550.18c0-19.71,0-39.42,0-59.12,0-21,15.67-36.53,36.67-36.57,11.85,0,23.7-.06,35.55,0A35.67,35.67,0,0,1-219.73,490q.12,60.24,0,120.48a35.69,35.69,0,0,1-35.72,35.63q-18.15.09-36.3,0a35.73,35.73,0,0,1-35.7-35.65C-327.52,590.34-327.46,570.26-327.46,550.18Zm83.83.58q0-29.19,0-58.38c0-9.12-4.76-13.94-13.76-14q-16.28,0-32.56,0c-8.73,0-13.58,4.92-13.58,13.75q0,58.2,0,116.39c0,8.78,4.88,13.57,13.75,13.59q16.09,0,32.19,0c9.27,0,13.95-4.75,14-14.13Q-243.61,579.39-243.63,550.76Z" transform="translate(465.21 -264.5)"></path>
    <path d="M-189.73,574.07c0-12-.05-23.94,0-35.92a35.74,35.74,0,0,1,35.61-35.74q18.33-.11,36.67,0A35.69,35.69,0,0,1-82,537.92q.12,36.3,0,72.58a35.7,35.7,0,0,1-35.41,35.57q-18.51.1-37,0a35.74,35.74,0,0,1-35.27-35.32C-189.79,598.52-189.73,586.29-189.73,574.07Zm23.92.17c0,11.48,0,23,0,34.43,0,8.59,4.89,13.45,13.48,13.48q16.47,0,32.94,0c8.58,0,13.46-4.9,13.47-13.48q0-34.44,0-68.86c0-8.54-5-13.46-13.48-13.48q-16.28-.06-32.56,0c-9,0-13.84,4.82-13.85,13.86Q-165.83,557.22-165.81,574.24Z" transform="translate(465.21 -264.5)"></path>
    <path d="M-180.21,364.41c3.11,0,6.23.13,9.34,0,6.24-.31,9.87-3.09,11.87-9,1.79-5.3,3.48-10.63,5.22-15.94,2.12-6.45,6.37-9.93,12-9.87s9.75,3.47,11.8,9.7c1.72,5.19,3.38,10.4,5.11,15.58,2.24,6.71,5.93,9.46,13,9.57,5.61.09,11.22,0,16.83,0,6.6.09,10.85,3,12.57,8.53,1.64,5.21-.23,10.1-5.39,13.92-4.51,3.32-9.08,6.56-13.6,9.89-5.48,4-7,8.52-4.94,15,1.71,5.45,3.59,10.85,5.3,16.3,1.86,5.93.31,11.21-4.09,14.34s-9.91,3-14.95-.57c-4.57-3.24-9.06-6.6-13.62-9.86-5.87-4.19-10.28-4.19-16.08,0-4.66,3.34-9.25,6.76-13.94,10.06-5.06,3.56-10.4,3.62-14.91.29-4.19-3.09-5.74-8.39-4-14.06,1.7-5.46,3.58-10.86,5.3-16.31,2.11-6.68.63-11.14-5-15.31-4.51-3.32-9.08-6.56-13.6-9.88-4.94-3.63-6.82-8.54-5.3-13.64,1.6-5.36,5.9-8.49,12.1-8.67,3-.09,6,0,9,0Zm22.7,22.48,6,18.6h19.23l6.09-18.57-15.64-11.41Z" transform="translate(465.21 -264.5)"></path>
  </symbol>
  <symbol xmlns="http://www.w3.org/2000/svg" fill="currentColor" viewBox="0 0 383.3 383.01" id="case-complete">
    <path d="M-282.64,204c2.69.83,5.42,1.57,8.07,2.52a44,44,0,0,1,29.21,41.25c.13,28.56.06,57.12,0,85.69,0,7.66-5.36,13.37-12.24,13.26s-11.86-5.51-11.88-13.17q-.09-41.73,0-83.44c0-5.66-1.07-10.88-5-15.25-4.56-5.12-10.36-7-17.05-6.94q-80.26.06-160.52,0c-6.74,0-13.47-.06-20.21,0-12.11.13-20.76,8.69-20.77,20.79q-.06,122.91,0,245.83c0,12.39,8.78,20.82,21.49,20.83q61.55,0,123.1,0c9,0,14.94,8.27,11.76,16.32a11.79,11.79,0,0,1-11,7.57c-42.66,0-85.31.15-128-.07-19-.1-36.19-15.31-40.52-34.93a22.39,22.39,0,0,0-.81-2.39V241.43a14.31,14.31,0,0,0,.77-2c2.45-11.63,8.32-21.24,18.35-27.53,5.56-3.49,12.17-5.3,18.31-7.87Z" transform="translate(516.93 -204)"></path>
    <path d="M-133.69,439.59c0,8.61-.17,17.22,0,25.81.68,29.18-10.12,53.94-29,75.56-16.47,18.87-36.6,32.88-58.9,44-5.33,2.66-10.21,2.77-15.62.06-27.75-13.85-52.09-31.8-69.69-57.8-12.25-18.09-18.67-38-18.47-60.06.19-20.58,0-41.15,0-61.73,0-7.09,2.59-10.72,9.4-13q40.61-13.86,81.2-27.69a15,15,0,0,1,10.18-.08c27.16,9.29,54.36,18.48,81.52,27.77,6.78,2.32,9.29,6,9.29,13.15Q-133.67,422.57-133.69,439.59Zm-24.68-26.86a4.64,4.64,0,0,0-1.09-.55q-33.9-11.56-67.83-23a7.93,7.93,0,0,0-4.67.16c-22.15,7.46-44.25,15.08-66.42,22.48-2.61.87-3,2.14-3,4.54q.14,25.08,0,50.14a80.72,80.72,0,0,0,12.3,43.62c14.19,22.83,34.76,38.45,58,50.92a4.6,4.6,0,0,0,3.69-.24c18.05-9.69,34.43-21.56,47.76-37.28,11.09-13.09,19.93-27.76,20.91-45C-157.43,456.74-158.37,434.88-158.37,412.73Z" transform="translate(516.93 -204)"></path>
    <path d="M-381.06,355.85q-37.43,0-74.83,0c-9.43,0-15.54-8.07-12.4-16.26a11.3,11.3,0,0,1,9.71-7.68,37.4,37.4,0,0,1,4.1-.2h146.67c7.55,0,12.06,2.74,13.89,8.35,2.64,8-3.27,15.75-12.31,15.78-20.08.08-40.16,0-60.24,0Z" transform="translate(516.93 -204)"></path>
    <path d="M-413.29,395.64h43c7.67,0,13,4.83,13.05,11.82s-5.28,12.1-13.14,12.1H-456c-7.65,0-13-4.86-13-11.82-.05-7.22,5.21-12.09,13.1-12.1Z" transform="translate(516.93 -204)"></path>
    <path d="M-421.12,267.74c11.85,0,23.7-.07,35.55,0a12.26,12.26,0,0,1,12.12,9.29,11.67,11.67,0,0,1-5.74,13.07,16.12,16.12,0,0,1-7.13,1.69q-34.81.19-69.61.05c-8,0-13.16-5-13.08-12.23s5.45-11.87,13.46-11.89C-444.07,267.71-432.6,267.73-421.12,267.74Z" transform="translate(516.93 -204)"></path>
    <path d="M-234.85,485.17c9.48-12.63,18.6-24.77,27.71-36.92,3.82-5.08,7.59-10.19,11.43-15.26,4.37-5.78,11.71-7.14,17.12-3.22,5.64,4.09,6.71,11.48,2.23,17.5q-23.56,31.64-47.33,63.12c-4.74,6.28-12.7,7-18.3,1.47q-16-15.69-31.75-31.73c-5-5-4.92-12.37-.23-17.11,4.85-4.91,12.16-4.88,17.38.27C-249.41,470.39-242.35,477.61-234.85,485.17Z" transform="translate(516.93 -204)"></path>
  </symbol>
  <symbol fill="currentColor" xmlns="http://www.w3.org/2000/svg" viewBox="0 0 383.36 383.02" id="qualification-icon">
    <path d="M-659.79,145h250c2.91,2.24,6.1,4.2,8.69,6.78,29.44,29.3,58.75,58.74,88.21,88a16.91,16.91,0,0,1,5.35,13q-.24,25.64,0,51.27a9.34,9.34,0,0,0,2.16,5.56,81.1,81.1,0,0,1,17.4,32.69c.95,3.56,1.62,7.2,2.41,10.81v17.22a11.43,11.43,0,0,0-.69,2.07c-1.6,12.74-6.42,24.2-13.54,34.82a12.33,12.33,0,0,0-2.08,6.44c-.13,33.81-.34,67.62.07,101.42.12,9.48-8.35,16.09-17.77,11.42-13.05-6.45-26.47-12.14-39.67-18.3a6.76,6.76,0,0,0-6.32,0c-13.32,6.18-26.64,12.35-40.09,18.23a15.85,15.85,0,0,1-8.59,1.21c-5.94-1.07-8.73-5.64-8.74-13,0-32.31,0-64.62-.11-96.93,0-2.23-1.2-4.64-2.38-6.65-2.39-4.08-5.42-7.79-7.65-11.93-1.45-2.68-3-3.55-6.05-3.55-71.85.1-143.71,0-215.56.21-8.65,0-14.22-4.74-14.19-14.05q.35-111.15,0-222.3C-668.87,152.36-666.6,147.48-659.79,145Zm217.64,228c-2.93-30.56,6.84-55.91,31.47-74.18s51.8-19.92,80.16-8.3V261h-4.26q-38,0-76,0a17.81,17.81,0,0,1-4.79-.49c-5.49-1.63-8.13-5.81-8.14-12.77q0-37.78,0-75.59c0-1.43-.16-2.86-.25-4.27H-646V373Zm76.06,44.87c29,1.11,55.78-20.7,58-52.93,2.08-29.73-22.07-57.16-52-59-31.73-1.95-58.39,21.41-60,53.47C-421.63,391-396.81,416.81-366.09,417.89ZM-324.54,430c-25.11,13.47-50.07,14-75.42,2v67.17c10.75-4.89,21.17-9.55,31.51-14.38a13.13,13.13,0,0,1,12.16,0c3,1.5,6.11,2.78,9.16,4.17l22.59,10.25Zm-76.13-245.28v53.6h53.6Z" transform="translate(668.88 -145.02)"></path>
    <path d="M-543.39,326.19h-69.24a10.67,10.67,0,0,1-10-5.95,10.65,10.65,0,0,1,.49-11.36c2.35-3.63,5.86-5.18,10.19-5.17,14.72.05,29.44,0,44.16,0q46.41,0,92.82,0c9.12,0,14.81,8.3,11,16.06-2.18,4.47-5.93,6.42-10.92,6.4Q-509.15,326.14-543.39,326.19Z" transform="translate(668.88 -145.02)"></path>
    <path d="M-543.76,236.42q-34.25,0-68.49,0c-4.85,0-8.49-2-10.6-6.3a10.66,10.66,0,0,1,1.09-11.65c2.59-3.48,6.25-4.6,10.51-4.59q50.89.08,101.8,0c11.72,0,23.45-.06,35.18,0A11.28,11.28,0,0,1-463,223.47a11,11,0,0,1-7.51,12.3,18.22,18.22,0,0,1-5.52.62Q-509.89,236.45-543.76,236.42Z" transform="translate(668.88 -145.02)"></path>
    <path d="M-543.76,281.33q-34.07,0-68.12,0c-6.53,0-11.24-3.83-12-9.47a11.21,11.21,0,0,1,11.11-13c1.87,0,3.74,0,5.61,0q66.06,0,132.12,0c4.61,0,8.27,1.66,10.61,5.71a10.62,10.62,0,0,1-.11,11.36c-2.23,3.74-5.66,5.44-10,5.44-10.6,0-21.2,0-31.81,0Z" transform="translate(668.88 -145.02)"></path>
    <path d="M-364.18,328.29a33.49,33.49,0,0,1,33.74,33.25,33.76,33.76,0,0,1-33.72,34.15,33.87,33.87,0,0,1-33.6-33.56A33.57,33.57,0,0,1-364.18,328.29Zm-.05,22.52a11.33,11.33,0,0,0-11,11.34,11.46,11.46,0,0,0,11.17,10.93,11.43,11.43,0,0,0,11.23-11.23A11.27,11.27,0,0,0-364.23,350.81Z" transform="translate(668.88 -145.02)"></path>
  </symbol>
</svg>