<svg width="0" height="0" class="hidden">
  <symbol xmlns="http://www.w3.org/2000/svg" fill="currentColor" viewBox="0 0 24 24" id="arrow-button">
    <path id='j' d="M5.63589 19.7784L4.22169 18.3644L15.657 6.92908L10.0712 6.92908V4.92908L19.0712 4.92908L19.0712 13.9291H17.0712L17.0712 8.34326L5.63589 19.7784Z"></path>
  </symbol>
  <symbol fill="currentColor" xmlns="http://www.w3.org/2000/svg"  viewBox="0 0 24 24" id="auction-fill">
    <path d="M9.995 20.003v2h12v-2h-12ZM9.41.689 1.631 8.467l1.414 1.414 1.061-.353 2.475 2.475L.924 17.66l1.414 1.414 5.657-5.657 2.404 2.404-.283 1.132 1.415 1.414 7.778-7.778-1.414-1.415-1.132.283-6.293-6.293.353-1.06L9.41.688Z"></path>
  </symbol>
  <symbol fill="currentColor" id="xp-icon" xmlns="http://www.w3.org/2000/svg" viewBox="0 0 383.42 377.09">
    <path d="M-394.39,532.3c2.57-3.13,4.8-6.64,7.77-9.34Q-359,497.74-331,472.85c2.12-1.89,2.88-4,3.34-6.72,2.43-14.63,5.14-29.21,7.79-43.8,2.59-14.23,5.26-28.43,7.82-42.66,1.12-6.26,2.78-7.64,9.17-7.86,27.92-1,55-5.58,79.71-19.51,5.3-3,10.26-6.61,15.27-10.1,3.9-2.71,6.41-2.92,10.14,0,20.65,16.05,44.43,24.16,70,27.46,8.63,1.11,17.36,1.59,26.05,2.17,4.92.32,7.09,1.86,8,6.65q3.83,20.58,7.56,41.18c2.67,14.72,5.69,29.38,7.79,44.18.74,5.25,3.1,8.43,6.77,11.69Q-44.14,499.88-17,524.6c9.54,8.65,7.58,19.1-4.4,23.89-7.5,3-15.08,5.83-22.53,9A6.32,6.32,0,0,0-47.09,561c-2.24,7.39-4.38,14.83-6.15,22.34-1.42,6-4.42,10.46-10.3,12.71h-6.73c-2.56-1.89-5.28-3.61-7.65-5.72q-17.6-15.66-35-31.55c-2-1.86-3.22-1.59-5.34-.24a109.26,109.26,0,0,1-13.66,7.61c-11.31,5.13-22.79,9.89-34.18,14.84s-23,10-34.43,15.06H-205a12.92,12.92,0,0,0-1.53-.95c-15-6.45-30-12.77-44.84-19.35-12.6-5.56-25.81-9.87-37.25-17.9-.68-.48-2.58-.1-3.34.56-5.38,4.63-10.54,9.53-15.9,14.19-9.08,7.88-18.25,15.64-27.39,23.45H-342c-5.91-2.2-8.88-6.66-10.32-12.66-1.77-7.38-4.1-14.61-5.9-22a5.62,5.62,0,0,0-4-4.33c-6.85-2.62-13.56-5.61-20.48-8-5.37-1.84-9.45-4.77-11.7-10.05Zm288.74-147.11c-10.5-1.26-20.68-2.12-30.72-3.76-23.12-3.8-44.81-11.5-64-25.26-2.17-1.56-3.41-.8-5.18.43-22.33,15.5-47.42,23.27-74.14,26.4-6.65.78-13.34,1.28-20.11,1.91-1.73,9.38-3.47,18.68-5.15,28-3.44,19.14-7.41,38.2-10.16,57.43-5,35,15.41,70.44,48.16,84.69q30.8,13.4,61.75,26.46a6.87,6.87,0,0,0,4.83.1c20.75-8.79,41.52-17.53,62.11-26.66,34-15.07,54.07-52.32,47.65-88.19C-95.53,439.49-100.65,412.3-105.65,385.19ZM-24,535.64l-53.26-47.93c-2.42,23.86-11.83,43.84-28.06,60.61l38.62,34.75c2.66-9.5,5.24-18.34,7.6-27.23a13.94,13.94,0,0,1,9.14-10C-41.52,542.57-33.09,539.2-24,535.64Zm-304.23-47.95-53.2,47.93c6.43,2.54,12.14,5.47,18.2,7,11.34,2.94,17.51,9.68,19.21,21.37.92,6.27,3.34,12.33,5.22,19l38.63-34.78C-316.49,531.41-325.8,511.59-328.25,487.69Z" transform="translate(394.39 -218.97)"></path>
    <path d="M-230.71,336.18c-7.52-.4-13.5-6.63-12.89-14,.66-7.84,1.46-15.66,2.47-23.46a7.29,7.29,0,0,0-1.93-6.39q-7.37-8.24-14.41-16.75c-7.3-8.78-3.66-19.5,7.45-22.06,6.9-1.59,13.87-2.95,20.73-4.7a7.29,7.29,0,0,0,4.12-3.05c3.66-6.23,7-12.62,10.47-19,2.57-4.77,6.38-7.77,11.85-7.83s9.33,2.91,11.9,7.68c3.49,6.48,6.94,13,10.64,19.34a6.82,6.82,0,0,0,3.88,2.81c6.87,1.71,13.83,3.09,20.74,4.66,11.33,2.59,14.95,13.33,7.47,22.27-4.89,5.84-10,11.5-14.78,17.41a7.13,7.13,0,0,0-1.39,4.67c.66,7.95,1.64,15.88,2.45,23.83a12.86,12.86,0,0,1-18,13.09c-6.5-2.83-12.9-5.91-19.25-9.08a6.9,6.9,0,0,0-7-.06c-6,3.07-12.09,5.87-18.21,8.63A51.62,51.62,0,0,1-230.71,336.18Zm55.92-13.34c-.78-7.42-1.24-14.13-2.24-20.77-1.1-7.34-.17-13.67,5.54-19.16,4.56-4.4,8.37-9.57,12.49-14.43a14.94,14.94,0,0,0,1.26-2.14c-7.15-1.62-13.88-3.51-20.75-4.6-6.54-1-10.78-4.33-13.67-10.2-3.16-6.43-6.81-12.62-10.6-19.55-4,7.28-7.77,13.82-11.19,20.55a15.93,15.93,0,0,1-12,9c-7.26,1.4-14.45,3.17-22.32,4.93,4.68,5.47,8.58,10.84,13.31,15.35,6.4,6.11,7.8,13.09,6.31,21.45-1.11,6.2-1.31,12.57-2,19.58,6.36-3,12.29-5.27,17.73-8.41,7-4,13.42-4,20.4,0C-187.07,317.6-181.15,319.88-174.79,322.84Z" transform="translate(394.39 -218.97)"></path>
    <path d="M-332.1,257.07c4.87-.07,8,1.52,10.56,4.33,4,4.45,8.07,8.86,11.92,13.45a6.49,6.49,0,0,0,5.77,2.52c5.61-.21,11.23-.24,16.84-.19,11,.12,16.68,9.65,11.69,19.52-2.65,5.23-5.32,10.45-8.19,15.55a7.17,7.17,0,0,0-.56,6.64c2.09,5.59,4,11.28,5.8,17,3.48,10.79-4.29,19.5-15.4,17.25-5.48-1.1-10.92-2.49-16.44-3.4a7.45,7.45,0,0,0-5,1.16c-4.36,3.1-8.52,6.5-12.66,9.92-4.31,3.55-9,4.79-14.26,2.63s-7.42-6.69-8.05-12.12c-.7-5.94-1.38-11.9-2.32-17.81a6.68,6.68,0,0,0-2.29-3.85c-4.92-3.83-10-7.4-15-11.14-8.76-6.56-7.74-17.88,2.07-22.78,5.23-2.61,10.62-4.92,15.78-7.67a7.5,7.5,0,0,0,3.26-4c1.92-5.92,3.38-12,5.22-17.93C-341.66,260.43-336.88,257.05-332.1,257.07ZM-337,351.45c4.88-3.83,9.34-7,13.42-10.63,4.93-4.36,10.18-5.64,16.57-3.79,5.3,1.53,10.81,2.34,16.68,3.57-2.26-6.68-4.17-12.75-6.38-18.7a16.05,16.05,0,0,1,1.07-14.35c3.15-5.59,6-11.39,9.09-17.42-6.76,0-13-.17-19.18.05a14.85,14.85,0,0,1-12.74-5.73c-4-4.76-8.21-9.3-12.76-14.41-1.79,6.46-3.54,12.26-5,18.13a15.85,15.85,0,0,1-9.66,11.53c-5.53,2.39-10.9,5.15-16.83,8,6,4.41,11.78,8.17,16.93,12.64,2.56,2.22,4.29,5.62,5.79,8.77.91,1.93.64,4.41.93,6.63C-338.37,340.74-337.71,345.76-337,351.45Z" transform="translate(394.39 -218.97)"></path>
    <path d="M-109.07,277.17c7.57,2.29,13.86-1.11,18.68-8.43A53.36,53.36,0,0,1-84,261.43c7.37-7.67,18.77-5.07,22,5.07,1.79,5.71,3.47,11.46,4.87,17.27A6.4,6.4,0,0,0-53,288.53c5,2.24,9.93,4.62,14.85,7,10.24,5,11.27,16.34,2.12,23.19-3.8,2.84-7.4,6.06-11.52,8.32-4.86,2.65-6,6.68-6.36,11.62A129.41,129.41,0,0,1-56,354.27a12.5,12.5,0,0,1-19.79,7.83c-4.89-3.45-9.34-7.51-14.23-11a8.44,8.44,0,0,0-5.66-1.27c-5.52.84-11,2.21-16.45,3.34-10.58,2.18-18.47-6.57-15.19-16.93,2-6.17,4.23-12.25,6.13-18.44a6.74,6.74,0,0,0-.34-4.47c-2.73-5.6-5.79-11-8.62-16.6-5-9.84.68-19.4,11.66-19.61C-115.77,277.12-113,277.17-109.07,277.17Zm34.68-7.11c-4.46,5-8.67,9.41-12.5,14.12a15.05,15.05,0,0,1-13.33,6c-6.13-.32-12.29-.08-18.92-.08,3.1,5.94,5.73,11.45,8.79,16.69a17,17,0,0,1,1.27,15.71c-2.23,5.75-4,11.68-6.14,18.17,6.15-1.32,11.77-2.3,17.24-3.78a15.82,15.82,0,0,1,15.57,3.61c4.28,3.7,8.86,7,13.87,11,1-7.44,2-14.06,2.65-20.72a14.37,14.37,0,0,1,6.38-10.86C-54,316-48.7,311.93-42.9,307.64c-6.36-3-12.26-5.9-18.2-8.68a13.47,13.47,0,0,1-7.7-9.07C-70.53,283.53-72.37,277.2-74.39,270.06Z" transform="translate(394.39 -218.97)"></path>
    <path d="M-303.6,477.8c1.49-8.93,3.23-19.87,5.18-30.77,2.56-14.36,5.29-28.68,8-43,1.16-6.21,2.51-7.5,8.79-8A168.46,168.46,0,0,0-232,384.44c8.41-3.39,16.51-7.56,24.6-11.69,3.21-1.63,5.91-1.95,9.09-.11a182.77,182.77,0,0,0,69.71,23c2.35.29,4.71.47,7.07.69,3.62.34,5.63,2.47,6.26,5.91,4.23,23.18,9.32,46.24,12.4,69.57,4.12,31.26-13.37,59.41-40.41,71.49-18.29,8.17-36.82,15.79-55.2,23.76a9.9,9.9,0,0,1-8.55-.07c-18.27-7.93-36.82-15.24-54.86-23.65C-288.63,530.91-301.82,509.17-303.6,477.8Zm25.28-69.07c-3.84,21.28-8.07,42.29-11.32,63.46a55.69,55.69,0,0,0,32.19,59.09c17.38,7.76,34.95,15.08,52.49,22.47a6.34,6.34,0,0,0,4.48,0c17.43-7.36,34.88-14.67,52.15-22.36a56,56,0,0,0,32.51-58.95c-2-13.56-4.75-27-7.19-40.48-1.41-7.8-2.88-15.59-4.3-23.27a195.94,195.94,0,0,1-72.79-22.16c-1.78-1-3.12-1.22-5.09-.16A194.51,194.51,0,0,1-278.32,408.73Z" transform="translate(394.39 -218.97)"></path>
    <path d="M-183.44,480.67c0,6.43,0,11.91,0,17.39a14.07,14.07,0,0,1-.66,4.39,5.83,5.83,0,0,1-6.12,4A5.82,5.82,0,0,1-196,502a19.32,19.32,0,0,1-.5-4.81q0-29.06,0-58.1c0-7.63,1.86-9.53,9.55-9.42,7.22.1,14.56-.38,21.61.81,12.43,2.09,20.89,13.81,20.14,26.4a25.29,25.29,0,0,1-22.85,23.77C-173,481.05-178,480.67-183.44,480.67Zm.23-12.78c4.51,0,8.73.1,12.94,0a12.42,12.42,0,0,0,12.05-11.54c.64-6.33-3.55-12.45-9.95-13.3-4.86-.64-9.86-.13-15-.13Z" transform="translate(394.39 -218.97)"></path>
    <path d="M-234.7,480.66l-11.57,19.28c-.71,1.17-1.36,2.39-2.17,3.49-2.33,3.2-5.74,4-8.82,2.06a6.24,6.24,0,0,1-2-8.82c5.08-8.73,10.24-17.4,15.56-26a4.37,4.37,0,0,0,0-5.35c-5.21-8.49-10.27-17.09-15.4-25.64-1.48-2.47-2-5.28.11-7.25a9.4,9.4,0,0,1,6.4-2.55c1.77.16,3.81,2.23,4.92,4,4.42,6.91,8.53,14,13.06,21.58l11.29-18.82c.76-1.29,1.49-2.6,2.33-3.83,2.25-3.28,5.68-4.2,8.75-2.43s4.23,5.54,2.2,9.07c-4,7-7.77,14.3-12.56,20.78-4.25,5.75-3.95,10.19.12,15.79,4.45,6.13,7.94,12.95,11.81,19.5,2.52,4.25,2,8.08-1.39,10.12s-7,.93-9.59-3.39C-226,495.22-230.19,488.18-234.7,480.66Z" transform="translate(394.39 -218.97)"></path>
  </symbol>
  <symbol fill="currentColor" xmlns="http://www.w3.org/2000/svg" viewBox="0 0 383.33 381.62" id="experience-two">
    <path d="M-465.21,533.07c1.79-6.78,4.12-13.27,9-18.56,7.22-7.82,16-12.06,26.72-12.1q18.14-.09,36.27,0A35.71,35.71,0,0,1-357.45,538q.12,36.27,0,72.54a35.71,35.71,0,0,1-35.75,35.57c-11.84.06-23.68,0-35.52,0-17.73,0-31.73-11.26-35.75-28.59a19.81,19.81,0,0,0-.74-2.08Zm23.94,41.17c0,11.48,0,23,0,34.43,0,8.58,4.89,13.45,13.48,13.48q16.47,0,32.93,0c8.59,0,13.47-4.9,13.48-13.48q0-34.44,0-68.86c0-8.54-4.95-13.46-13.48-13.48q-16.27-.06-32.56,0c-9,0-13.84,4.82-13.85,13.86Q-441.29,557.2-441.27,574.24Z" transform="translate(465.21 -264.5)"></path>
    <path d="M-465.21,372.88c3.32-6.79,8.86-9.11,16.18-8.52,4.46.36,9,.12,13.46.06,7.32-.1,10.95-2.75,13.27-9.68,1.73-5.18,3.38-10.4,5.1-15.59,2-6.14,6.35-9.6,11.89-9.59s9.83,3.45,11.87,9.62c1.76,5.31,3.44,10.65,5.22,16,2.1,6.27,5.82,9.1,12.44,9.26,5.73.13,11.47,0,17.2.05,6.65.09,10.87,3,12.62,8.48,1.66,5.22-.19,10.14-5.34,13.94-4.61,3.4-9.31,6.69-13.91,10.1-5.09,3.79-6.64,8.38-4.78,14.45,1.71,5.58,3.65,11.09,5.4,16.67,1.87,5.93.34,11.19-4.05,14.35s-9.87,3.07-14.94-.53c-4.77-3.39-9.44-6.94-14.22-10.31-5.24-3.69-9.94-3.62-15.19.13-4.67,3.33-9.27,6.76-13.93,10.08-5.29,3.77-10.62,3.92-15.23.53-4.32-3.18-5.75-8.39-3.85-14.4,1.68-5.34,3.47-10.63,5.15-16,2.1-6.69.64-11.14-5-15.32-3.71-2.73-7.67-5.17-11.13-8.19-3-2.62-5.49-5.87-8.21-8.84ZM-389.63,387l-15.63-11.42-16.2,11.64a88.06,88.06,0,0,1,3.91,8.92,85.81,85.81,0,0,1,2,9.39h19.77C-393.66,399.16-391.58,392.85-389.63,387Z" transform="translate(465.21 -264.5)"></path>
    <path d="M-299.32,316.78c4.64-14.22,9.17-28.16,13.73-42.1,2.15-6.61,6.19-10.06,11.83-10.17s10,3.5,12.2,10.18c4.55,13.94,9.09,27.89,13.72,42.09h44.9c6.52,0,10.87,2.94,12.66,8.45,1.69,5.21-.12,10.19-5.28,14-11.16,8.17-22.32,16.35-33.6,24.36-2.23,1.58-2.67,2.92-1.8,5.5,4.44,13.2,8.72,26.46,12.94,39.73,2.39,7.55-1.17,14.36-8.31,16.14-4.2,1-7.8-.32-11.19-2.81q-16.28-11.94-32.65-23.76c-1.1-.79-2.22-1.54-3.46-2.4-12.19,8.85-24.3,17.6-36.37,26.41-4.3,3.13-8.81,4-13.64,1.46-5.43-2.86-7.56-8.6-5.49-15.08,4.24-13.26,8.5-26.52,12.94-39.72.88-2.61.37-3.95-1.82-5.51q-16.92-12-33.62-24.35c-6.35-4.66-7.71-12-3.38-17.6a12.31,12.31,0,0,1,10.44-4.81C-329.61,316.82-314.65,316.78-299.32,316.78Zm59.55,24.76-.26-.76h-12.9c-10.42,0-13-1.9-16.24-11.73-1.32-4-2.7-8.07-4.05-12.11A81.8,81.8,0,0,0-278,329.24c-3.05,9.43-5.87,11.53-15.64,11.53H-307.2a98.26,98.26,0,0,0,11,8.93c7.21,5.27,8.51,9.25,5.76,17.68-1.44,4.43-2.85,8.86-4.61,14.31l10.88-7.89c9.12-6.6,12.14-6.59,21.34.09l10.69,7.75c-1.82-5.56-3.27-10-4.72-14.49-2.61-8-1.27-12.22,5.46-17.15Z" transform="translate(465.21 -264.5)"></path>
    <path d="M-327.46,550.18c0-19.71,0-39.42,0-59.12,0-21,15.67-36.53,36.67-36.57,11.85,0,23.7-.06,35.55,0A35.67,35.67,0,0,1-219.73,490q.12,60.24,0,120.48a35.69,35.69,0,0,1-35.72,35.63q-18.15.09-36.3,0a35.73,35.73,0,0,1-35.7-35.65C-327.52,590.34-327.46,570.26-327.46,550.18Zm83.83.58q0-29.19,0-58.38c0-9.12-4.76-13.94-13.76-14q-16.28,0-32.56,0c-8.73,0-13.58,4.92-13.58,13.75q0,58.2,0,116.39c0,8.78,4.88,13.57,13.75,13.59q16.09,0,32.19,0c9.27,0,13.95-4.75,14-14.13Q-243.61,579.39-243.63,550.76Z" transform="translate(465.21 -264.5)"></path>
    <path d="M-189.73,574.07c0-12-.05-23.94,0-35.92a35.74,35.74,0,0,1,35.61-35.74q18.33-.11,36.67,0A35.69,35.69,0,0,1-82,537.92q.12,36.3,0,72.58a35.7,35.7,0,0,1-35.41,35.57q-18.51.1-37,0a35.74,35.74,0,0,1-35.27-35.32C-189.79,598.52-189.73,586.29-189.73,574.07Zm23.92.17c0,11.48,0,23,0,34.43,0,8.59,4.89,13.45,13.48,13.48q16.47,0,32.94,0c8.58,0,13.46-4.9,13.47-13.48q0-34.44,0-68.86c0-8.54-5-13.46-13.48-13.48q-16.28-.06-32.56,0c-9,0-13.84,4.82-13.85,13.86Q-165.83,557.22-165.81,574.24Z" transform="translate(465.21 -264.5)"></path>
    <path d="M-180.21,364.41c3.11,0,6.23.13,9.34,0,6.24-.31,9.87-3.09,11.87-9,1.79-5.3,3.48-10.63,5.22-15.94,2.12-6.45,6.37-9.93,12-9.87s9.75,3.47,11.8,9.7c1.72,5.19,3.38,10.4,5.11,15.58,2.24,6.71,5.93,9.46,13,9.57,5.61.09,11.22,0,16.83,0,6.6.09,10.85,3,12.57,8.53,1.64,5.21-.23,10.1-5.39,13.92-4.51,3.32-9.08,6.56-13.6,9.89-5.48,4-7,8.52-4.94,15,1.71,5.45,3.59,10.85,5.3,16.3,1.86,5.93.31,11.21-4.09,14.34s-9.91,3-14.95-.57c-4.57-3.24-9.06-6.6-13.62-9.86-5.87-4.19-10.28-4.19-16.08,0-4.66,3.34-9.25,6.76-13.94,10.06-5.06,3.56-10.4,3.62-14.91.29-4.19-3.09-5.74-8.39-4-14.06,1.7-5.46,3.58-10.86,5.3-16.31,2.11-6.68.63-11.14-5-15.31-4.51-3.32-9.08-6.56-13.6-9.88-4.94-3.63-6.82-8.54-5.3-13.64,1.6-5.36,5.9-8.49,12.1-8.67,3-.09,6,0,9,0Zm22.7,22.48,6,18.6h19.23l6.09-18.57-15.64-11.41Z" transform="translate(465.21 -264.5)"></path>
  </symbol>
  <symbol  xmlns="http://www.w3.org/2000/svg" fill="currentColor" viewBox="0 0 383.3 383.01" id="case-complete">
    <path d="M-282.64,204c2.69.83,5.42,1.57,8.07,2.52a44,44,0,0,1,29.21,41.25c.13,28.56.06,57.12,0,85.69,0,7.66-5.36,13.37-12.24,13.26s-11.86-5.51-11.88-13.17q-.09-41.73,0-83.44c0-5.66-1.07-10.88-5-15.25-4.56-5.12-10.36-7-17.05-6.94q-80.26.06-160.52,0c-6.74,0-13.47-.06-20.21,0-12.11.13-20.76,8.69-20.77,20.79q-.06,122.91,0,245.83c0,12.39,8.78,20.82,21.49,20.83q61.55,0,123.1,0c9,0,14.94,8.27,11.76,16.32a11.79,11.79,0,0,1-11,7.57c-42.66,0-85.31.15-128-.07-19-.1-36.19-15.31-40.52-34.93a22.39,22.39,0,0,0-.81-2.39V241.43a14.31,14.31,0,0,0,.77-2c2.45-11.63,8.32-21.24,18.35-27.53,5.56-3.49,12.17-5.3,18.31-7.87Z" transform="translate(516.93 -204)"></path>
    <path d="M-133.69,439.59c0,8.61-.17,17.22,0,25.81.68,29.18-10.12,53.94-29,75.56-16.47,18.87-36.6,32.88-58.9,44-5.33,2.66-10.21,2.77-15.62.06-27.75-13.85-52.09-31.8-69.69-57.8-12.25-18.09-18.67-38-18.47-60.06.19-20.58,0-41.15,0-61.73,0-7.09,2.59-10.72,9.4-13q40.61-13.86,81.2-27.69a15,15,0,0,1,10.18-.08c27.16,9.29,54.36,18.48,81.52,27.77,6.78,2.32,9.29,6,9.29,13.15Q-133.67,422.57-133.69,439.59Zm-24.68-26.86a4.64,4.64,0,0,0-1.09-.55q-33.9-11.56-67.83-23a7.93,7.93,0,0,0-4.67.16c-22.15,7.46-44.25,15.08-66.42,22.48-2.61.87-3,2.14-3,4.54q.14,25.08,0,50.14a80.72,80.72,0,0,0,12.3,43.62c14.19,22.83,34.76,38.45,58,50.92a4.6,4.6,0,0,0,3.69-.24c18.05-9.69,34.43-21.56,47.76-37.28,11.09-13.09,19.93-27.76,20.91-45C-157.43,456.74-158.37,434.88-158.37,412.73Z" transform="translate(516.93 -204)"></path>
    <path d="M-381.06,355.85q-37.43,0-74.83,0c-9.43,0-15.54-8.07-12.4-16.26a11.3,11.3,0,0,1,9.71-7.68,37.4,37.4,0,0,1,4.1-.2h146.67c7.55,0,12.06,2.74,13.89,8.35,2.64,8-3.27,15.75-12.31,15.78-20.08.08-40.16,0-60.24,0Z" transform="translate(516.93 -204)"></path>
    <path d="M-413.29,395.64h43c7.67,0,13,4.83,13.05,11.82s-5.28,12.1-13.14,12.1H-456c-7.65,0-13-4.86-13-11.82-.05-7.22,5.21-12.09,13.1-12.1Z" transform="translate(516.93 -204)"></path>
    <path d="M-421.12,267.74c11.85,0,23.7-.07,35.55,0a12.26,12.26,0,0,1,12.12,9.29,11.67,11.67,0,0,1-5.74,13.07,16.12,16.12,0,0,1-7.13,1.69q-34.81.19-69.61.05c-8,0-13.16-5-13.08-12.23s5.45-11.87,13.46-11.89C-444.07,267.71-432.6,267.73-421.12,267.74Z" transform="translate(516.93 -204)"></path>
    <path d="M-234.85,485.17c9.48-12.63,18.6-24.77,27.71-36.92,3.82-5.08,7.59-10.19,11.43-15.26,4.37-5.78,11.71-7.14,17.12-3.22,5.64,4.09,6.71,11.48,2.23,17.5q-23.56,31.64-47.33,63.12c-4.74,6.28-12.7,7-18.3,1.47q-16-15.69-31.75-31.73c-5-5-4.92-12.37-.23-17.11,4.85-4.91,12.16-4.88,17.38.27C-249.41,470.39-242.35,477.61-234.85,485.17Z" transform="translate(516.93 -204)"></path>
  </symbol>
  <symbol fill="currentColor" xmlns="http://www.w3.org/2000/svg" viewBox="0 0 383.36 383.02" id="qualification-icon">
    <path d="M-659.79,145h250c2.91,2.24,6.1,4.2,8.69,6.78,29.44,29.3,58.75,58.74,88.21,88a16.91,16.91,0,0,1,5.35,13q-.24,25.64,0,51.27a9.34,9.34,0,0,0,2.16,5.56,81.1,81.1,0,0,1,17.4,32.69c.95,3.56,1.62,7.2,2.41,10.81v17.22a11.43,11.43,0,0,0-.69,2.07c-1.6,12.74-6.42,24.2-13.54,34.82a12.33,12.33,0,0,0-2.08,6.44c-.13,33.81-.34,67.62.07,101.42.12,9.48-8.35,16.09-17.77,11.42-13.05-6.45-26.47-12.14-39.67-18.3a6.76,6.76,0,0,0-6.32,0c-13.32,6.18-26.64,12.35-40.09,18.23a15.85,15.85,0,0,1-8.59,1.21c-5.94-1.07-8.73-5.64-8.74-13,0-32.31,0-64.62-.11-96.93,0-2.23-1.2-4.64-2.38-6.65-2.39-4.08-5.42-7.79-7.65-11.93-1.45-2.68-3-3.55-6.05-3.55-71.85.1-143.71,0-215.56.21-8.65,0-14.22-4.74-14.19-14.05q.35-111.15,0-222.3C-668.87,152.36-666.6,147.48-659.79,145Zm217.64,228c-2.93-30.56,6.84-55.91,31.47-74.18s51.8-19.92,80.16-8.3V261h-4.26q-38,0-76,0a17.81,17.81,0,0,1-4.79-.49c-5.49-1.63-8.13-5.81-8.14-12.77q0-37.78,0-75.59c0-1.43-.16-2.86-.25-4.27H-646V373Zm76.06,44.87c29,1.11,55.78-20.7,58-52.93,2.08-29.73-22.07-57.16-52-59-31.73-1.95-58.39,21.41-60,53.47C-421.63,391-396.81,416.81-366.09,417.89ZM-324.54,430c-25.11,13.47-50.07,14-75.42,2v67.17c10.75-4.89,21.17-9.55,31.51-14.38a13.13,13.13,0,0,1,12.16,0c3,1.5,6.11,2.78,9.16,4.17l22.59,10.25Zm-76.13-245.28v53.6h53.6Z" transform="translate(668.88 -145.02)"></path>
    <path d="M-543.39,326.19h-69.24a10.67,10.67,0,0,1-10-5.95,10.65,10.65,0,0,1,.49-11.36c2.35-3.63,5.86-5.18,10.19-5.17,14.72.05,29.44,0,44.16,0q46.41,0,92.82,0c9.12,0,14.81,8.3,11,16.06-2.18,4.47-5.93,6.42-10.92,6.4Q-509.15,326.14-543.39,326.19Z" transform="translate(668.88 -145.02)"></path>
    <path d="M-543.76,236.42q-34.25,0-68.49,0c-4.85,0-8.49-2-10.6-6.3a10.66,10.66,0,0,1,1.09-11.65c2.59-3.48,6.25-4.6,10.51-4.59q50.89.08,101.8,0c11.72,0,23.45-.06,35.18,0A11.28,11.28,0,0,1-463,223.47a11,11,0,0,1-7.51,12.3,18.22,18.22,0,0,1-5.52.62Q-509.89,236.45-543.76,236.42Z" transform="translate(668.88 -145.02)"></path>
    <path d="M-543.76,281.33q-34.07,0-68.12,0c-6.53,0-11.24-3.83-12-9.47a11.21,11.21,0,0,1,11.11-13c1.87,0,3.74,0,5.61,0q66.06,0,132.12,0c4.61,0,8.27,1.66,10.61,5.71a10.62,10.62,0,0,1-.11,11.36c-2.23,3.74-5.66,5.44-10,5.44-10.6,0-21.2,0-31.81,0Z" transform="translate(668.88 -145.02)"></path>
    <path d="M-364.18,328.29a33.49,33.49,0,0,1,33.74,33.25,33.76,33.76,0,0,1-33.72,34.15,33.87,33.87,0,0,1-33.6-33.56A33.57,33.57,0,0,1-364.18,328.29Zm-.05,22.52a11.33,11.33,0,0,0-11,11.34,11.46,11.46,0,0,0,11.17,10.93,11.43,11.43,0,0,0,11.23-11.23A11.27,11.27,0,0,0-364.23,350.81Z" transform="translate(668.88 -145.02)"></path>
  </symbol>
</svg>