<svg width="0" height="0" class="hidden">
  <symbol xmlns="http://www.w3.org/2000/svg" fill="currentColor" viewBox="0 0 24 24" id="arrow-right">
    <path d="M16.1716 10.9999L10.8076 5.63589L12.2218 4.22168L20 11.9999L12.2218 19.778L10.8076 18.3638L16.1716 12.9999H4V10.9999H16.1716Z"></path>
  </symbol>
  <symbol xmlns="http://www.w3.org/2000/svg" fill="currentColor" viewBox="0 0 24 24" id="arrow-left">
    <path d="M7.82843 10.9999H20V12.9999H7.82843L13.1924 18.3638L11.7782 19.778L4 11.9999L11.7782 4.22168L13.1924 5.63589L7.82843 10.9999Z"></path>
  </symbol>
  <symbol xmlns="http://www.w3.org/2000/svg" fill="currentColor" viewBox="0 0 24 24" id="plus-icon">
    <path d="M13.0001 10.9999L22.0002 10.9997L22.0002 12.9997L13.0001 12.9999L13.0001 21.9998L11.0001 21.9998L11.0001 12.9999L2.00004 13.0001L2 11.0001L11.0001 10.9999L11 2.00025L13 2.00024L13.0001 10.9999Z"></path>
  </symbol>
  <symbol fill="currentColor" xmlns="http://www.w3.org/2000/svg" viewBox="0 0 383.45 383.27" id="client-focused">
    <path d="M-86.38,449.33c-3.48,9.14-10.16,12.82-19.81,12.38-8.59-.39-8.57-.08-10,8.39-8.73,52-36,91.31-81.39,118a151.49,151.49,0,0,1-60.92,20c-2.49.27-3.76,1.05-3.6,3.91a73.63,73.63,0,0,1-.19,11.21A15.57,15.57,0,0,1-278,637.21c-8.19,0-15.1-5.86-15.79-13.93-.4-4.7-.07-9.45-.07-13.75C-377.95,594.72-427,545.83-442,461.44c-4,0-8.72.27-13.38-.06a15.58,15.58,0,0,1-14-12.15c-1.57-6.3,1-13.57,6.84-16.86,2.89-1.64,6.51-2.29,9.88-2.71,3.67-.45,7.43-.1,11.28-.1,1.06-6.06,1.72-11.88,3.11-17.52,16.9-68.46,59.91-110.65,128.34-127.08a103.28,103.28,0,0,1,12.56-1.84c2.42-.27,3.6-1.16,3.32-3.76-.19-1.72.08-3.5-.06-5.23-.79-9.74,2.95-16.66,12.31-20.18h7.49c9.35,3.52,13.1,10.45,12.31,20.17-.13,1.61.16,3.26-.05,4.86-.39,2.93.94,3.87,3.68,4.18a155.43,155.43,0,0,1,73.53,27.95c38.15,27,61.15,63.73,68.67,110,1.37,8.46,1.4,8.77,10,8.37,9.67-.45,16.33,3.24,19.8,12.38Zm-61-19.6c-4.33-32.23-18-58.92-41.22-80.58-20.61-19.21-45-30.54-73.48-34.23,0,3.93,0,7.16,0,10.38,0,5.14-1.78,9.55-5.82,12.83A15.34,15.34,0,0,1-284,340.62c-5.9-2.36-9.41-6.92-9.87-13.36-.27-3.92-.05-7.87-.05-12.38-31.11,4.23-57,17.06-78.37,38.92-20.47,21-32.5,46.11-36.44,75.76,1.92,0,3.26-.07,4.6,0,3.71.22,7.58-.06,11.12.87,7.46,2,11.82,9.14,11,17a15.42,15.42,0,0,1-14.21,14c-3.95.32-7.94.05-12.56.05,4.3,32,17.74,58.48,40.7,80.07,20.71,19.48,45.25,31,74,34.71,0-3.92,0-7.15,0-10.37,0-5.3,1.9-9.79,6.12-13.06a15.36,15.36,0,0,1,16.23-2.09,14.74,14.74,0,0,1,9.51,13.23c.26,3.92,0,7.87,0,12.37,31-4.17,56.83-16.94,78.13-38.66,20.6-21,32.74-46.24,36.68-76-1.92,0-3.26.06-4.59,0-3.61-.18-7.33.09-10.78-.74-7.41-1.79-12.07-9-11.4-16.74a15.45,15.45,0,0,1,14.26-14.35C-155.94,429.46-151.95,429.73-147.33,429.73Z" transform="translate(469.83 -253.95)"></path>
    <path d="M-278.25,509.53q-24.67,0-49.36,0c-9.89,0-14.11-4.49-14.45-14.36-.47-13.64,2.56-26,12.31-36,8.45-8.69,18.75-13.43,30.95-13.53,13.84-.11,27.68-.08,41.51,0,22.29.1,41.4,18,42.92,40.23.25,3.6.32,7.23.24,10.84-.18,8-4.83,12.72-12.89,12.81-11.09.12-22.19,0-33.28,0Z" transform="translate(469.83 -253.95)"></path>
    <path d="M-278.12,429.75a32.38,32.38,0,0,1-32-32.33A32.36,32.36,0,0,1-278,365.61a32.36,32.36,0,0,1,32,32.32A32.38,32.38,0,0,1-278.12,429.75Z" transform="translate(469.83 -253.95)"></path>
  </symbol>
  <symbol fill="currentColor" xmlns="http://www.w3.org/2000/svg" viewBox="0 0 300.92 366.61" id="guidance-icon">
    <path d="M-371.83,566.43l-60-59.95c11-10.45,22-21.37,33.52-31.6,6.78-6,15.36-8.59,24.52-8.65,9-.06,18,0,26.95-.1a42.85,42.85,0,0,1,24,7.09,21.46,21.46,0,0,0,12.29,3.37c17.84-.22,35.68-.18,53.52,0,11.36.08,19,8,18.53,18.87-.41,8.67-7.21,16.09-15.89,16.46-10,.42-19.95.22-29.93.25-7.36,0-14.72,0-22.08,0-4,0-6.2,1.61-6.26,4.38s2.13,4.45,6.09,4.45c16.72,0,33.44.07,50.15,0,15.19-.08,26.58-11.56,26.9-26.78a6.53,6.53,0,0,1,1.34-4q16-17.54,32.3-34.86c4.2-4.46,9.72-4.95,15-1.82s8.16,9.14,6.54,14.54a16.76,16.76,0,0,1-2.55,4.93q-23.11,32-46.34,63.89c-9.79,13.36-22.92,20.14-39.69,20-28.2-.18-56.39.1-84.59-.14C-357.22,556.66-365.73,558.78-371.83,566.43Z" transform="translate(474.76 -243.34)"></path>
    <path d="M-344.77,451c0-11.7-.71-23.21.21-34.59.87-10.76,7.43-18.83,16.18-24.91a90.23,90.23,0,0,1,9.69-5.59c6.1-3.21,11.29-4,18.31.19,15.37,9.11,31.23,7.33,46.13-2.59,1.08-.72,2.77-1.4,3.89-1.07,10.58,3.08,20.12,8,27.42,16.56a33.41,33.41,0,0,1,8.37,22.24c0,9.83,0,19.67,0,29.76Z" transform="translate(474.76 -243.34)"></path>
    <path d="M-393.68,610l-81.08-81.11,25.48-25.42,81,81.14Z" transform="translate(474.76 -243.34)"></path>
    <path d="M-314.26,348a34.6,34.6,0,0,1,34.64-34.36,34.58,34.58,0,0,1,34.28,35.09,34.61,34.61,0,0,1-34.45,34.18A34.63,34.63,0,0,1-314.26,348Z" transform="translate(474.76 -243.34)"></path>
    <path d="M-384.73,347.73l24-23.67v15h31.49v18.4h-31.21V372Z" transform="translate(474.76 -243.34)"></path>
    <path d="M-198.84,372.35V357.72h-31.41V339.16H-199V324.84l23.87,23.89C-182.48,356.05-190.57,364.1-198.84,372.35Z" transform="translate(474.76 -243.34)"></path>
    <path d="M-279.75,243.34l24.05,24.14h-15V299H-288.9V267.5h-15.05Z" transform="translate(474.76 -243.34)"></path>
  </symbol>
  <symbol fill="currentColor" xmlns="http://www.w3.org/2000/svg" viewBox="0 0 359.41 356.77" id="communication-icon">
    <path d="M-441.93,298.24c27.45,0,54.9.4,82.33-.16,14.73-.31,27.91,10.51,27.74,28-.3,31.81-.07,63.63-.09,95.44,0,17-10.8,27.8-27.82,27.84-16.72,0-33.44-.07-50.15.11a8.69,8.69,0,0,0-5.42,2.29c-5.83,5.63-11.37,11.56-17.07,17.33-6,6.12-12.88,6.06-18.95-.13-5.67-5.79-11.23-11.7-17.05-17.34a8.18,8.18,0,0,0-5.11-2.16c-16.59-.16-33.18-.08-49.77-.1-17.77,0-28.41-10.64-28.41-28.38q0-47.91,0-95.82c0-13.48,7.82-23.59,20.38-26.36a34.7,34.7,0,0,1,7.43-.5Q-482.9,298.2-441.93,298.24Zm.22,57.61a17.93,17.93,0,0,0-18.08,17.61,18,18,0,0,0,18,18.1,18.05,18.05,0,0,0,17.9-17.87A17.9,17.9,0,0,0-441.71,355.85Zm49.83,0a17.57,17.57,0,0,0-17.85,17.66,17.8,17.8,0,0,0,17.92,18.06,17.81,17.81,0,0,0,17.7-17.94A17.65,17.65,0,0,0-391.88,355.85Zm-82,17.68a17.59,17.59,0,0,0-17.84-17.68,17.66,17.66,0,0,0-17.79,17.76,17.84,17.84,0,0,0,18.06,18A17.79,17.79,0,0,0-473.91,373.53Z" transform="translate(621.61 -298.07)"></path>
    <path d="M-539.2,654.69c-22.71,0-45.42-.29-68.12.14-9.24.18-14.41-6.31-14.29-14.21.56-36.65,28.51-68.9,65.14-73.5,18-2.26,36.22-2.68,53.3,5.12,29.31,13.39,44.3,36.72,46.19,68.64.51,8.78-4.6,13.8-13.35,13.81Q-504.77,654.72-539.2,654.69Z" transform="translate(621.61 -298.07)"></path>
    <path d="M-344.88,654.69H-413c-9.24,0-13.93-4.91-13.71-14.24.89-38.19,30.27-70.44,68.24-73.83,18.27-1.63,36.77-1.78,53.75,7.19,27.29,14.4,41.45,37.17,42.51,68,.28,8-4.68,12.87-12.67,12.88Q-309.87,654.73-344.88,654.69Z" transform="translate(621.61 -298.07)"></path>
    <path d="M-344.27,561.05a51.09,51.09,0,0,1-51.3-51.27,51.34,51.34,0,0,1,51.09-51.21c28.21,0,51.49,23.21,51.45,51.37A51.4,51.4,0,0,1-344.27,561.05Z" transform="translate(621.61 -298.07)"></path>
    <path d="M-488.08,510c-.08,28.61-23,51.17-51.88,51.06-27.73-.11-50.78-23.46-50.66-51.32A51.63,51.63,0,0,1-539,458.57,51.32,51.32,0,0,1-488.08,510Z" transform="translate(621.61 -298.07)"></path>
  </symbol>
  <symbol fill="currentColor" xmlns="http://www.w3.org/2000/svg" viewBox="0 0 284.19 290.21" id="trusted-icon">
    <path d="M-299.81,417.92c0,12.24.23,24.47-2.76,36.51-6.11,24.59-19.43,44.2-40.14,58.73-6.94,4.86-14.15,9.35-21.3,13.91-.83.53-2.46.91-3.11.47-10.56-7.15-21.78-13.59-31.38-21.9-22.49-19.47-33.25-44.8-33.64-74.49-.16-11.82,0-23.65-.08-35.47,0-2.2.72-3.15,2.74-3.95,20.33-8.05,40.61-16.25,61-24.27a7.68,7.68,0,0,1,5.14,0c20.23,8,40.38,16.15,60.6,24.13,2.27.9,3.09,2,3,4.42C-299.91,403.31-299.81,410.62-299.81,417.92Zm-72.85,56.81c.78-.71,1.35-1.19,1.87-1.71q24.06-24,48.1-48.1A11,11,0,0,0-321,423a6.35,6.35,0,0,0-.13-7.53,6.09,6.09,0,0,0-7.46-2.19,11.29,11.29,0,0,0-3.82,2.84q-18.85,18.76-37.61,37.63a19.42,19.42,0,0,0-2.1,3.34c-5.73-5.83-10.57-10.86-15.54-15.76a6.53,6.53,0,0,0-9.26-.28c-2.72,2.62-2.8,6.52.09,9.46C-388.92,458.53-380.91,466.47-372.66,474.73Z" transform="translate(511.41 -367.01)"></path>
    <path d="M-402.25,601.61c-5.41-.58-10.5-1.1-15.58-1.68-15.9-1.82-31.79-3.73-47.69-5.47a33,33,0,0,0-18.59,3.79c-17.43-15.88-27.19-35.14-27.25-58.82q-.12-47.1,0-94.21c0-8.31,4.91-14.46,12.31-15.85a15,15,0,0,1,16.57,8.89,20.19,20.19,0,0,1,1.36,7.21c.11,17.21.08,34.42,0,51.63a9.19,9.19,0,0,1-1.19,4.19c-4.37,7.86-3.42,16.84,2.8,23.2,8.35,8.54,16.81,17,25.2,25.45,1.67,1.68,3.48,2.95,5.5.82s.65-3.91-1-5.56q-12.42-12.45-24.8-24.93a12.18,12.18,0,0,1-3.11-13.33c1.76-5.08,5.58-7.8,10.86-8.29a11.67,11.67,0,0,1,9.67,3.53c13.2,13.26,26.53,26.4,39.51,39.88,10,10.41,14.85,23.23,15.36,37.61C-402,586.84-402.25,594-402.25,601.61Z" transform="translate(511.41 -367.01)"></path>
    <path d="M-336.33,601.42c.48-13.89-1.51-27.61,3.78-40.76a58.89,58.89,0,0,1,12.81-19.9Q-301,521.85-282.24,503c5.57-5.58,13.24-5.86,18.4-.79s5,12.84-.47,18.42c-7.91,8.06-15.91,16-23.87,24-.53.54-1.43,1-1.51,1.62-.2,1.52-.61,3.47.11,4.56,1.08,1.67,3,1.3,4.46-.11,2.54-2.48,5-5,7.53-7.52,5.84-5.87,11.7-11.73,17.52-17.62,7.35-7.44,8.42-15.72,3.36-24.92a6.54,6.54,0,0,1-.76-3c0-17.74-.09-35.49,0-53.23,0-7.84,5.9-14.36,13.21-15.12a15.07,15.07,0,0,1,16.65,11.58,20.75,20.75,0,0,1,.35,4.8c0,30.87-.05,61.73,0,92.6.07,21.62-7.63,39.93-22.53,55.51-3.05,3.18-5.32,4.71-9.85,2.53-6.65-3.19-13.87-1.84-20.94-1-17.59,2.1-35.19,4.09-52.8,6.11A29,29,0,0,1-336.33,601.42Z" transform="translate(511.41 -367.01)"></path>
    <path d="M-302.5,657.18c-10.75,0-21.5.14-32.24,0-14.55-.24-25.4-11.65-24.7-25.69.63-12.75,10.5-22,24.32-23.46,18.36-1.9,36.67-4.3,55-6.14,5.69-.57,11.74-1.05,17.19.25,12.76,3,20.18,15,19.23,29.07-1.07,15.68-11.83,25.88-27.56,26C-281.64,657.24-292.07,657.18-302.5,657.18Z" transform="translate(511.41 -367.01)"></path>
    <path d="M-436.13,657.13c-11.07,0-22.15.26-33.21-.07-13.68-.42-23.82-10.21-25.5-24-1.8-14.71,5.85-27.76,19.17-31,5.34-1.3,11.29-.84,16.87-.28,18.47,1.86,36.89,4.24,55.35,6.2,13.55,1.44,22.36,9.36,24.12,22.21S-388,656-401,657c-.75,0-1.51.14-2.26.14h-32.89Z" transform="translate(511.41 -367.01)"></path>
  </symbol>
  <symbol fill="currentColor" xmlns="http://www.w3.org/2000/svg" viewBox="0 0 43 43" id="consultation-icon">
    <path d="M41.6562 28.2188H38.9688V21.5C38.9687 16.867 37.1283 12.4238 33.8523 9.14773C30.5762 5.8717 26.133 4.03125 21.5 4.03125C16.867 4.03125 12.4238 5.8717 9.14773 9.14773C5.8717 12.4238 4.03125 16.867 4.03125 21.5V28.2188H1.34375V21.5C1.34375 16.1542 3.46735 11.0274 7.24738 7.24738C11.0274 3.46735 16.1542 1.34375 21.5 1.34375C26.8458 1.34375 31.9726 3.46735 35.7526 7.24738C39.5327 11.0274 41.6562 16.1542 41.6562 21.5V28.2188Z" fill="currentColor"></path>
    <path d="M9.71531 36.2812H8.0625C7.18018 36.2812 6.3065 36.1075 5.49135 35.7698C4.67619 35.4322 3.93552 34.9373 3.31163 34.3134C2.05162 33.0534 1.34375 31.3444 1.34375 29.5625V26.875C1.34375 25.0931 2.05162 23.3841 3.31163 22.1241C4.57164 20.8641 6.28058 20.1562 8.0625 20.1562H9.71531C10.3498 20.1668 10.9547 20.4263 11.3996 20.8788C11.8445 21.3312 12.0938 21.9404 12.0938 22.575V33.8625C12.0938 34.4971 11.8445 35.1063 11.3996 35.5587C10.9547 36.0112 10.3498 36.2707 9.71531 36.2812ZM8.0625 22.8438C6.99335 22.8438 5.96798 23.2685 5.21198 24.0245C4.45597 24.7805 4.03125 25.8058 4.03125 26.875V29.5625C4.03125 30.6317 4.45597 31.657 5.21198 32.413C5.96798 33.169 6.99335 33.5937 8.0625 33.5938H9.40625V22.8438H8.0625Z" fill="currentColor"></path>
    <path d="M34.9375 36.2812H33.325C32.6835 36.2812 32.0683 36.0264 31.6147 35.5728C31.1611 35.1192 30.9062 34.504 30.9062 33.8625V22.575C30.9062 21.9335 31.1611 21.3183 31.6147 20.8647C32.0683 20.4111 32.6835 20.1562 33.325 20.1562H34.9375C36.7194 20.1563 38.4284 20.8641 39.6884 22.1241C40.9484 23.3841 41.6562 25.0931 41.6562 26.875V29.5625C41.6562 31.3444 40.9484 33.0534 39.6884 34.3134C38.4284 35.5734 36.7194 36.2812 34.9375 36.2812ZM33.5938 33.5938H34.9375C36.0067 33.5937 37.032 33.169 37.788 32.413C38.544 31.657 38.9687 30.6317 38.9688 29.5625V26.875C38.9687 25.8058 38.544 24.7805 37.788 24.0245C37.032 23.2685 36.0067 22.8438 34.9375 22.8438H33.5938V33.5938Z" fill="currentColor"></path>
    <path d="M8.0625 21.5H9.71531C10.0004 21.5 10.2739 21.6133 10.4755 21.8149C10.6771 22.0165 10.7903 22.2899 10.7903 22.575V33.8625C10.7903 34.1476 10.6771 34.421 10.4755 34.6226C10.2739 34.8242 10.0004 34.9375 9.71531 34.9375H8.0625C6.63696 34.9375 5.26981 34.3712 4.2618 33.3632C3.25379 32.3552 2.6875 30.988 2.6875 29.5625V26.875C2.6875 25.4495 3.25379 24.0823 4.2618 23.0743C5.26981 22.0663 6.63696 21.5 8.0625 21.5Z" fill="currentColor"></path>
    <path d="M34.9375 34.9375H33.325C33.0399 34.9375 32.7665 34.8242 32.5649 34.6226C32.3633 34.421 32.25 34.1476 32.25 33.8625V22.575C32.25 22.2899 32.3633 22.0165 32.5649 21.8149C32.7665 21.6133 33.0399 21.5 33.325 21.5H34.9375C36.363 21.5 37.7302 22.0663 38.7382 23.0743C39.7462 24.0823 40.3125 25.4495 40.3125 26.875V29.5625C40.3125 30.988 39.7462 32.3552 38.7382 33.3632C37.7302 34.3712 36.363 34.9375 34.9375 34.9375Z" fill="currentColor"></path>
    <path d="M32.1022 41.6562H22.8438C22.4874 41.6562 22.1456 41.5147 21.8936 41.2627C21.6416 41.0107 21.5 40.6689 21.5 40.3125C21.5 39.9561 21.6416 39.6143 21.8936 39.3623C22.1456 39.1103 22.4874 38.9688 22.8438 38.9688H32.25C32.6064 38.9688 32.9482 38.8272 33.2002 38.5752C33.4522 38.3232 33.5938 37.9814 33.5938 37.625V34.9375H36.2813V37.625C36.2837 38.2841 36.1246 38.9338 35.8177 39.5171C35.5108 40.1005 35.0655 40.5996 34.5209 40.9709C33.8034 41.4406 32.9595 41.6797 32.1022 41.6562Z" fill="currentColor"></path>
  </symbol>
  <symbol fill="currentColor" xmlns="http://www.w3.org/2000/svg" viewBox="0 0 359.27 364.96" id="review-icon">
    <path d="M-205.89,500.29H-322.06a27.84,27.84,0,0,0-4.09.1c-3.12.47-4.9,2.37-5,5.52a5.28,5.28,0,0,0,4.59,5.85,24.16,24.16,0,0,0,4.82.28c41.77,0,83.53,0,125.3.1a14.64,14.64,0,0,1,7.21,2.12c18.28,11.21,37.93,14.81,59,11.14.48-.08,1-.09,1.69-.15v72.59h-247V277.65h195.05v3.81q0,17.16,0,34.32c0,9,4.73,13.72,13.85,13.74q17,0,33.93,0h4.16v34.8c-7.86-.18-15.6-1.15-23.15-.32-8.16.89-16.15,3.48-24.21,5.29-2.27.51-4.55,1.3-6.83,1.31q-69.74.11-139.46.06c-6.19,0-8.93,1.81-9,5.92s2.62,6,8.78,6h123.66c-3.93,4.35-7.83,8-10.92,12.25a144.57,144.57,0,0,0-9.9,16.13c-1.19,2.19-2.3,2.95-4.75,2.95q-49-.13-98.07-.06a22,22,0,0,0-3.35.05c-3.2.47-5.25,2.24-5.42,5.6s1.73,5.35,4.85,6.09a17.94,17.94,0,0,0,4.09.18h96.35c-.48,10.47-.94,20.59-1.43,31.28h-94.75a33.13,33.13,0,0,0-3.73.06c-3.1.34-5,2.09-5.36,5.21-.33,3.31,1.32,5.51,4.54,6.28a19.3,19.3,0,0,0,4.44.31q47.35,0,94.71-.05c2.79,0,4.14.68,5,3.47C-219.14,482.53-213.51,491.42-205.89,500.29ZM-252,543.45h-70a22.81,22.81,0,0,0-4.46.19,5.32,5.32,0,0,0-4.63,5.82,5.3,5.3,0,0,0,4.6,5.48,20.59,20.59,0,0,0,4.09.18h140.84a31.16,31.16,0,0,0,3.35-.09,5.82,5.82,0,0,0,5.28-5.73,5.78,5.78,0,0,0-5.25-5.74,37.29,37.29,0,0,0-4.1-.11Zm-21-204.07H-222c4.88,0,7.49-2,7.58-5.71s-2.57-6.13-7.28-6.13q-51.06-.06-102.12,0c-4.81,0-7.4,2.26-7.37,6s2.55,5.81,7.44,5.82Z" transform="translate(375.56 -232.89)"></path>
    <path d="M-336.92,265.44V232.89h195.2v3.82q0,17.16,0,34.31c0,9,4.75,13.73,13.85,13.74q17,0,33.93,0h4.17V385c-1.12-.82-1.83-1.43-2.61-1.92-7-4.39-13.95-9-21.17-13-2.16-1.22-3-2.2-3-4.67.11-14.92-.06-29.84.11-44.75a17.44,17.44,0,0,0-5.54-13.6q-18.4-18-36.39-36.38a16.89,16.89,0,0,0-12.95-5.29q-80.35.12-160.71.05Z" transform="translate(375.56 -232.89)"></path>
    <path d="M-87.49,484.48q10.32,11,20.36,21.77c6.28-3.79,7.65-3.6,12.7,1.3q17.24,16.77,34.5,33.52c4.82,4.68,4.84,7.43.15,12.26-3.73,3.83-7.43,7.69-11.19,11.49-3.94,4-7.21,4-11.22.16Q-60,547.75-77.77,530.43c-4.37-4.26-4.61-6.2-2.1-10.32l-20.06-21.73c-32.62,26.45-74.83,19.14-97.72-6.74-23.48-26.55-23.61-66.39-.28-92.63A69.92,69.92,0,0,1-106,387.48C-78.18,406.33-63.74,448.31-87.49,484.48Zm-4.61-39.22a53.47,53.47,0,0,0-53.11-53.6A53.69,53.69,0,0,0-199,445.05a53.52,53.52,0,0,0,53.57,53.52A53.33,53.33,0,0,0-92.1,445.26Z" transform="translate(375.56 -232.89)"></path>
    <path d="M-100.45,513.62l6,6.9c.4.46,1,.93,1.08,1.45,1.07,10.3,6.42,20.12,2.9,31.4H-116.5c0-8.48.39-16.66-.14-24.79-.34-5.25,1-8.2,6.24-9.76C-107.26,517.88-104.47,515.78-100.45,513.62Z" transform="translate(375.56 -232.89)"></path>
    <path d="M-129.46,233.52l39.24,39h-39.24Z" transform="translate(375.56 -232.89)"></path>
    <path d="M-168.44,317.35V279.23l38.08,38.12Z" transform="translate(375.56 -232.89)"></path>
  </symbol>
  <symbol fill="currentColor" xmlns="http://www.w3.org/2000/svg" viewBox="0 0 350.41 337.62" id="legal-actions">
    <path d="M-379.74,589.59a1.29,1.29,0,0,0,.34,0c3.32-.64,7.3-.38,9.74-2.2s3.12-5.63,4.82-9.06a19.62,19.62,0,0,1,1.74,3.53c1.31,5.15,4.62,7.38,9.83,7.17a18.69,18.69,0,0,1,3.7.8c-6.95,4.56-9.34,10.28-5.78,17.43-.74.25-1,.42-1.09.35-5.78-4.51-11.52-5.07-17.55,1.29.25-2.39.11-3.7.54-4.78,2.76-6.87-1.7-10.37-6.29-13.85Z" transform="translate(379.74 -271.29)"></path>
    <path d="M-243.27,558.48c1.86-14.81,3.71-29.49,5.56-44.16q3.26-25.76,6.53-51.5c.78-6.21,1.4-12.45,2.41-18.62a8.72,8.72,0,0,0-2.4-8.25c-15.12-16.35-23.45-36.09-27.92-57.63-.17-.82,1-2,1.71-2.9.22-.3.85-.27,1.26-.45,4-1.73,7.22-1.39,11.11,1.47,10.64,7.84,22,3.68,25.73-9,3.9,3,8.08,5,13.17,4.13A14.47,14.47,0,0,0-195,363.38a4,4,0,0,1,2.51-2c7-.82,13.93-1.44,21.21-2.15l4.06,10.54c-5.17,5-10.65,9.61-15.39,14.92a57.61,57.61,0,0,0-12.69,25c-.44,1.78-.48,3.51,1.51,3.74.83.1,2.46-1.54,2.75-2.64,4.22-16.27,13.65-28.59,27.92-37.29,2.28-1.39,2.3-2.6,1.17-5a84.2,84.2,0,0,1-4.81-12.92c-.77-2.68-1.78-3.21-4.35-2.36-11.11,3.71-22.44,4.94-34,2.17a20.55,20.55,0,0,1-11.56-6.83c-4.72-5.81-2.77-12.42,4.43-14.4q18.73-5.14,37.56-10c3.91-1,7.72-.71,10.8,2.42,7.5,7.63,15.06,15.2,22.5,22.89a122.9,122.9,0,0,1,8.13,9.24c5.78,7.32,6.92,15.26,3.2,24a234.17,234.17,0,0,1-24.06,42.39,13.84,13.84,0,0,0-2.69,8.5q.16,60.19.11,120.41v4.36Z" transform="translate(379.74 -271.29)"></path>
    <path d="M-289,507h6.89c3.88,27.48-8.51,50.28-34.49,57-24.85,6.49-49.67-8.92-55.85-33.94a28.42,28.42,0,0,1-1-6.05c-.13-5.56,0-11.13,0-17h8c3.05-10.63,6-21,9-31.34q11.19-39.36,22.36-78.71c.54-1.88.56-3.21-.9-4.88-3.32-3.77-2.8-8.88.87-12.61a8.78,8.78,0,0,1,11.8-1c3.78,2.76,5.22,8.18,2.71,12.18-1.41,2.25-1.21,4.09-.56,6.36q15.18,53.46,30.26,107C-289.78,504.86-289.46,505.71-289,507Zm-5.49-.94c-.21-1.1-.3-1.9-.52-2.66q-14.83-52.49-29.75-104.95a4.22,4.22,0,0,0-2.21-2.63c-2.17-.65-2.42,1.24-2.87,2.8q-13.31,47.08-26.66,94.16c-1.23,4.33-2.44,8.67-3.74,13.28Z" transform="translate(379.74 -271.29)"></path>
    <path d="M-30,430.05c1.79,19.38-1.58,36.55-17.67,48.73-14.7,11.13-31,13-47.63,5.18s-25.48-21.48-26.41-40c-.23-4.52,0-9.06,0-13.87h7.83c.42-1.11.84-2,1.11-3q15-52.79,30.05-105.56c.58-2,.71-3.62-.87-5.55-3-3.72-2.32-9.06,1.12-12.4a8.93,8.93,0,0,1,11.58-.78,10.35,10.35,0,0,1,3.27,12.23,8.13,8.13,0,0,0-.61,5q15,53.52,30.11,107c.61,2.16,1.43,3.42,3.92,3A28.27,28.27,0,0,1-30,430.05Zm-12.4-.93L-73.22,319.9l-4.42.4-30.81,108.82Z" transform="translate(379.74 -271.29)"></path>
    <path d="M-279.09,601.23c0-3.34-.05-6.28,0-9.22.08-4.63,2.52-7.17,7.11-7.47.91-.06,1.82,0,2.73,0h134.46a27.76,27.76,0,0,1,3.76.16,6.36,6.36,0,0,1,5.85,6.45c.12,3.18,0,6.37,0,10.11h58.85a6.88,6.88,0,0,1,2.7.13c.8.37,1.82,1.28,1.86,2a3,3,0,0,1-1.55,2.27,8.66,8.66,0,0,1-3.36.27h-271c-.68,0-1.5.23-2-.06a24.56,24.56,0,0,1-3-2.25c1-.79,2.07-2.24,3.13-2.26,9.46-.18,18.93-.11,28.4-.11Z" transform="translate(379.74 -271.29)"></path>
    <path d="M-256.33,579.75c0-3.51-.23-6.92.06-10.28.31-3.54,2.68-5.64,6.29-6.12a29.25,29.25,0,0,1,3.75-.15h88.51c7.88,0,9.94,2,9.94,9.87,0,2.15,0,4.29,0,6.68Z" transform="translate(379.74 -271.29)"></path>
    <path d="M-262.13,344.54c.26-8.11,3.28-13,8.63-16.65a7.21,7.21,0,0,1,10.81,4.6c1.22,5.13,4.37,9.88,7.14,14.53s6.19,8.73,9.06,13.24,2.5,8.75-.63,12.27-7.54,4.47-12.15,2.54a19.65,19.65,0,0,1-4.71-2.7,54,54,0,0,1-15.83-19.85A46.26,46.26,0,0,1-262.13,344.54Z" transform="translate(379.74 -271.29)"></path>
    <path d="M-49.3,585.93c-8.59-8.28-16.57-15.6-19.31-26.69-1-4.14.36-7.64,3.52-10.42,2.89-2.55,6.25-4.15,10-2.32,2.22,1.08,4,3.09,6,4.7,5.29-5.82,9.11-6.7,15-3.06,4,2.48,5.73,6.29,4.27,10.82a30.11,30.11,0,0,1-4.36,9.14C-38.83,574.1-44,579.71-49.3,585.93Z" transform="translate(379.74 -271.29)"></path>
    <path d="M-328.47,332.29c-5.16-6.37-10.11-12.29-14.8-18.4a20.63,20.63,0,0,1-2.85-6.16c-2.07-6.48.14-11.7,6-14.59,4.62-2.28,8.77-.65,12.88,5.17,2.2-4.72,5.93-6.53,10.91-5.63,4.47.8,8.63,4.38,8.69,8.45a21.18,21.18,0,0,1-2.24,9.41C-314.08,318.93-320.77,325.32-328.47,332.29Z" transform="translate(379.74 -271.29)"></path>
    <path d="M-144,336.82c-4.38-3.68-8.71-7.22-12.92-10.89a26.67,26.67,0,0,0-13.26-6.64,3.78,3.78,0,0,1-2.52-2.28c-1.58-6.44,1.32-14.27,6.31-17.66,5.45-3.71,14.14-3.6,19.72.18,4.79,3.23,6.49,8.13,6,13.38C-141.4,321.34-143,329.71-144,336.82Z" transform="translate(379.74 -271.29)"></path>
    <path d="M-210.87,328c-3.81,2.77-7.44,4.65-10,7.48-4.69,5.14-3.27,12.8,2.79,18.1,4.84,4.23,10.86,5.53,16.91,6.73l1.62.33c-3.05,7.28-11.2,9.05-16.27,3.46-5.52-6.07-10.91-12.28-16-18.72-4.36-5.5-7.75-11.55-7-19.05,1.11-11.57,12.38-14.64,19.81-13.15a5.72,5.72,0,0,1,3.43,2.91C-213.73,320.23-212.24,324.52-210.87,328Z" transform="translate(379.74 -271.29)"></path>
    <path d="M-177.24,320.37l-28.32,7.56c-7.11-10.12-3.56-24.91,6.83-28.45a17.79,17.79,0,0,1,16.6,2.37c3.3,2.34,5.33,5.49,4.93,9.88C-177.44,314.42-177.24,317.16-177.24,320.37Z" transform="translate(379.74 -271.29)"></path>
    <path d="M-313.33,387.54l-3.2-10.48L-301,372.4c12.5-3.76,25-7.5,37.49-11.33,2-.61,3.23-.54,4.46,1.45a77.63,77.63,0,0,0,5.54,7.08Z" transform="translate(379.74 -271.29)"></path>
    <path d="M-139.88,335.51c.67-4.11,1.14-7.46,1.82-10.76a2.84,2.84,0,0,1,1.69-1.73c15.27-4.65,30.57-9.21,45.74-13.76,1.06,3.53,2.06,6.84,3.17,10.55Z" transform="translate(379.74 -271.29)"></path>
    <path d="M-44.23,271.29c2.08,7.67,6.09,12.13,14.52,10.79v.84a56.51,56.51,0,0,1-4.48,4.79,5.73,5.73,0,0,0-2,6.27,36,36,0,0,1,.84,7.12c-5.92-5.27-11.69-5.47-17.91.07,2.32-7.6,1.68-13.86-5.92-18.36C-50.65,283.31-46.26,279.05-44.23,271.29Z" transform="translate(379.74 -271.29)"></path>
  </symbol>
  <symbol fill="currentColor" xmlns="http://www.w3.org/2000/svg" viewBox="0 0 381.97 383.24" id="recover-icon">
    <path d="M-276.17,634.52c-6.18-2.79-8.35-7.51-8.32-14.3.21-42.9.1-85.81.11-128.71,0-7.4,2.21-10.6,9.16-13.16,5.72-2.11,11.44-4.2,17.19-6.22,7.12-2.51,13,.14,15.59,7.2q24.06,65.9,48,131.82c2.72,7.5-.05,13.09-7.63,16-6.48,2.45-13,4.94-19.44,7.41Z" transform="translate(284.49 -251.27)"></path>
    <path d="M-220.54,473.13c14.3-4.68,27.82-11.19,42.82-13.22,23.22-3.15,45.3.58,64.87,13.23,15.43,10,31.93,15.26,49.76,17.74,7.27,1,14.49,2.38,21.69,3.81,14.59,2.89,23.72,15.27,22.71,30.57-.87,13.23-12.63,24.87-26.67,25-7.24.09-14.53-1.79-21.76-3-20.11-3.47-40.19-7.11-60.3-10.62a11.31,11.31,0,0,0-12.46,8.41c-1.35,6,1.9,11.86,8,13.28,7.51,1.74,15.15,2.92,22.74,4.26,18,3.18,36.06,6.17,54.05,9.49,27.15,5,54.61-14.6,58.16-42,.63-4.93,2.38-7.59,7.14-9.66,15.53-6.74,30.7-14.27,46.1-21.29,17.78-8.1,36.62,1.45,40.63,20.42a28,28,0,0,1-14.27,30c-20.18,10.84-40.54,21.35-60.83,32C1,592.45-19.92,603.22-40.66,614.33c-13,6.94-26.45,8.61-40.87,6.36-18.94-3-38-5.3-57-7.93-10.24-1.41-20.48-2.79-30.69-4.39a5,5,0,0,1-3.33-2.59q-24.07-65.7-47.91-131.47A6.38,6.38,0,0,1-220.54,473.13Z" transform="translate(284.49 -251.27)"></path>
    <path d="M-1.08,500.61c-10-20.46-27.82-28.21-49.33-30.73l3.86-1.55c15.63-6.33,24.13-22.21,19.62-37-2.92-9.58-9.68-15.9-18.51-19.92-8-3.65-16.32-6.76-24.52-10-2.43-1-4.75-2.07-4.56-5.13s2.09-5,4.86-6.06c5.43-2.09,10.81-1.5,16,.77a64.41,64.41,0,0,1,7.78,4.41c5.25,3.24,11.52,2.32,15.08-2.31,3.78-4.9,3.34-11.49-1.72-15.35-13.12-10-27.67-14.19-43.85-8.85-19.38,6.39-26.84,29.24-14.48,44.41a28.5,28.5,0,0,0,9.64,7.37c7.52,3.56,15.42,6.32,23.1,9.55A30.64,30.64,0,0,1-51.31,434c4.35,3.35,4.38,7.26.34,11s-8.9,4.31-14,3.72a27.31,27.31,0,0,1-16.32-7.55c-5-4.82-10.34-5.72-15.13-2.63s-6.09,8.36-3.61,14.91c.06.17-.06.4-.15.89-22.49-13.5-46.82-19.29-73.82-17.31,1.48-8,2.42-15.47,4.31-22.71q12.73-48.79,53.34-78.89a9.85,9.85,0,0,1,5.41-1.76q47.34-.15,94.69,0a9.65,9.65,0,0,1,5.42,1.74C21.45,359.72,40.87,391.77,45.54,432c1.71,14.8,1.07,29.87,1.36,44.82a3.66,3.66,0,0,1-1.77,2.75c-15,7.08-30,14-45,21A5.51,5.51,0,0,1-1.08,500.61Z" transform="translate(284.49 -251.27)"></path>
    <path d="M-25.7,311.13H-80.35c-6.11,0-12.22-.08-18.34.05-2.15,0-3.25-.52-4-2.71-5-13.67-10.23-27.25-15.3-40.89-3.38-9.1,1.75-16.29,11.52-16.3h86.08c9.52,0,14.65,7.24,11.36,16.15-5.13,13.89-10.39,27.72-15.6,41.58C-24.94,309.7-25.31,310.34-25.7,311.13Z" transform="translate(284.49 -251.27)"></path>
  </symbol>
  <symbol fill="currentColor" xmlns="http://www.w3.org/2000/svg" viewBox="0 0 2 416" id="line-icon">
    <line x1="1" y1="4.37114e-08" x2="0.999982" y2="416" stroke="currentColor" stroke-width="2" stroke-dasharray="4 4"></line>
  </symbol>
  <symbol xmlns="http://www.w3.org/2000/svg" fill="currentColor" viewBox="0 0 24 24" id="right-arrow">
    <path d="M16.1716 10.9999L10.8076 5.63589L12.2218 4.22168L20 11.9999L12.2218 19.778L10.8076 18.3638L16.1716 12.9999H4V10.9999H16.1716Z"></path>
  </symbol>
  <symbol xmlns="http://www.w3.org/2000/svg" fill="currentColor" viewBox="0 0 24 24" id="left-arrow">
    <path d="M7.82843 10.9999H20V12.9999H7.82843L13.1924 18.3638L11.7782 19.778L4 11.9999L11.7782 4.22168L13.1924 5.63589L7.82843 10.9999Z"></path>
  </symbol>
  <symbol xmlns="http://www.w3.org/2000/svg" fill="currentColor" viewBox="0 0 24 24" id="facebook-icon">
    <path d="M14 13.5H16.5L17.5 9.5H14V7.5C14 6.47062 14 5.5 16 5.5H17.5V2.1401C17.1743 2.09685 15.943 2 14.6429 2C11.9284 2 10 3.65686 10 6.69971V9.5H7V13.5H10V22H14V13.5Z"></path>
  </symbol>
  <symbol xmlns="http://www.w3.org/2000/svg" fill="currentColor" viewBox="0 0 24 24" id="instagram-icon">
    <path d="M13.0281 2.00073C14.1535 2.00259 14.7238 2.00855 15.2166 2.02322L15.4107 2.02956C15.6349 2.03753 15.8561 2.04753 16.1228 2.06003C17.1869 2.1092 17.9128 2.27753 18.5503 2.52503C19.2094 2.7792 19.7661 3.12253 20.3219 3.67837C20.8769 4.2342 21.2203 4.79253 21.4753 5.45003C21.7219 6.0867 21.8903 6.81337 21.9403 7.87753C21.9522 8.1442 21.9618 8.3654 21.9697 8.58964L21.976 8.78373C21.9906 9.27647 21.9973 9.84686 21.9994 10.9723L22.0002 11.7179C22.0003 11.809 22.0003 11.903 22.0003 12L22.0002 12.2821L21.9996 13.0278C21.9977 14.1532 21.9918 14.7236 21.9771 15.2163L21.9707 15.4104C21.9628 15.6347 21.9528 15.8559 21.9403 16.1225C21.8911 17.1867 21.7219 17.9125 21.4753 18.55C21.2211 19.2092 20.8769 19.7659 20.3219 20.3217C19.7661 20.8767 19.2069 21.22 18.5503 21.475C17.9128 21.7217 17.1869 21.89 16.1228 21.94C15.8561 21.9519 15.6349 21.9616 15.4107 21.9694L15.2166 21.9757C14.7238 21.9904 14.1535 21.997 13.0281 21.9992L12.2824 22C12.1913 22 12.0973 22 12.0003 22L11.7182 22L10.9725 21.9993C9.8471 21.9975 9.27672 21.9915 8.78397 21.9768L8.58989 21.9705C8.36564 21.9625 8.14444 21.9525 7.87778 21.94C6.81361 21.8909 6.08861 21.7217 5.45028 21.475C4.79194 21.2209 4.23444 20.8767 3.67861 20.3217C3.12278 19.7659 2.78028 19.2067 2.52528 18.55C2.27778 17.9125 2.11028 17.1867 2.06028 16.1225C2.0484 15.8559 2.03871 15.6347 2.03086 15.4104L2.02457 15.2163C2.00994 14.7236 2.00327 14.1532 2.00111 13.0278L2.00098 10.9723C2.00284 9.84686 2.00879 9.27647 2.02346 8.78373L2.02981 8.58964C2.03778 8.3654 2.04778 8.1442 2.06028 7.87753C2.10944 6.81253 2.27778 6.08753 2.52528 5.45003C2.77944 4.7917 3.12278 4.2342 3.67861 3.67837C4.23444 3.12253 4.79278 2.78003 5.45028 2.52503C6.08778 2.27753 6.81278 2.11003 7.87778 2.06003C8.14444 2.04816 8.36564 2.03847 8.58989 2.03062L8.78397 2.02433C9.27672 2.00969 9.8471 2.00302 10.9725 2.00086L13.0281 2.00073ZM12.0003 7.00003C9.23738 7.00003 7.00028 9.23956 7.00028 12C7.00028 14.7629 9.23981 17 12.0003 17C14.7632 17 17.0003 14.7605 17.0003 12C17.0003 9.23713 14.7607 7.00003 12.0003 7.00003ZM12.0003 9.00003C13.6572 9.00003 15.0003 10.3427 15.0003 12C15.0003 13.6569 13.6576 15 12.0003 15C10.3434 15 9.00028 13.6574 9.00028 12C9.00028 10.3431 10.3429 9.00003 12.0003 9.00003ZM17.2503 5.50003C16.561 5.50003 16.0003 6.05994 16.0003 6.74918C16.0003 7.43843 16.5602 7.9992 17.2503 7.9992C17.9395 7.9992 18.5003 7.4393 18.5003 6.74918C18.5003 6.05994 17.9386 5.49917 17.2503 5.50003Z"></path>
  </symbol>
  <symbol xmlns="http://www.w3.org/2000/svg" fill="currentColor" viewBox="0 0 24 24" id="linkedin-icon">
    <path d="M6.94048 4.99993C6.94011 5.81424 6.44608 6.54702 5.69134 6.85273C4.9366 7.15845 4.07187 6.97605 3.5049 6.39155C2.93793 5.80704 2.78195 4.93715 3.1105 4.19207C3.43906 3.44699 4.18654 2.9755 5.00048 2.99993C6.08155 3.03238 6.94097 3.91837 6.94048 4.99993ZM7.00048 8.47993H3.00048V20.9999H7.00048V8.47993ZM13.3205 8.47993H9.34048V20.9999H13.2805V14.4299C13.2805 10.7699 18.0505 10.4299 18.0505 14.4299V20.9999H22.0005V13.0699C22.0005 6.89993 14.9405 7.12993 13.2805 10.1599L13.3205 8.47993Z"></path>
  </symbol>
  <symbol xmlns="http://www.w3.org/2000/svg" fill="currentColor" viewBox="0 0 24 24" id="twitter-icon">
    <path d="M10.4883 14.651L15.25 21H22.25L14.3917 10.5223L20.9308 3H18.2808L13.1643 8.88578L8.75 3H1.75L9.26086 13.0145L2.31915 21H4.96917L10.4883 14.651ZM16.25 19L5.75 5H7.75L18.25 19H16.25Z"></path>
  </symbol>
  <symbol xmlns="http://www.w3.org/2000/svg" fill="currentColor" viewBox="0 0 24 24" id="customerService-icon">
    <path d="M21 8C22.1046 8 23 8.89543 23 10V14C23 15.1046 22.1046 16 21 16H19.9381C19.446 19.9463 16.0796 23 12 23V21C15.3137 21 18 18.3137 18 15V9C18 5.68629 15.3137 3 12 3C8.68629 3 6 5.68629 6 9V16H3C1.89543 16 1 15.1046 1 14V10C1 8.89543 1.89543 8 3 8H4.06189C4.55399 4.05369 7.92038 1 12 1C16.0796 1 19.446 4.05369 19.9381 8H21ZM7.75944 15.7849L8.81958 14.0887C9.74161 14.6662 10.8318 15 12 15C13.1682 15 14.2584 14.6662 15.1804 14.0887L16.2406 15.7849C15.0112 16.5549 13.5576 17 12 17C10.4424 17 8.98882 16.5549 7.75944 15.7849Z"></path>
  </symbol>
  <symbol xmlns="http://www.w3.org/2000/svg" fill="currentColor" viewBox="0 0 24 24" id="location-icon">
    <path d="M17.0839 15.812C19.6827 13.0691 19.6379 8.73845 16.9497 6.05025C14.2161 3.31658 9.78392 3.31658 7.05025 6.05025C4.36205 8.73845 4.31734 13.0691 6.91612 15.812C7.97763 14.1228 9.8577 13 12 13C14.1423 13 16.0224 14.1228 17.0839 15.812ZM12 23.7279L5.63604 17.364C2.12132 13.8492 2.12132 8.15076 5.63604 4.63604C9.15076 1.12132 14.8492 1.12132 18.364 4.63604C21.8787 8.15076 21.8787 13.8492 18.364 17.364L12 23.7279ZM12 12C10.3431 12 9 10.6569 9 9C9 7.34315 10.3431 6 12 6C13.6569 6 15 7.34315 15 9C15 10.6569 13.6569 12 12 12Z"></path>
  </symbol>
  <symbol xmlns="http://www.w3.org/2000/svg" fill="currentColor" viewBox="0 0 24 24" id="mail-icon">
    <path d="M2 5.5V3.9934C2 3.44476 2.45531 3 2.9918 3H21.0082C21.556 3 22 3.44495 22 3.9934V20.0066C22 20.5552 21.5447 21 21.0082 21H2.9918C2.44405 21 2 20.5551 2 20.0066V19H20V7.3L12 14.5L2 5.5ZM0 10H5V12H0V10ZM0 15H8V17H0V15Z"></path>
  </symbol>

</svg>